<?xml version="1.0" standalone="no"?>
<!DOCTYPE svg PUBLIC "-//W3C//DTD SVG 20010904//EN"
 "http://www.w3.org/TR/2001/REC-SVG-20010904/DTD/svg10.dtd">
<svg version="1.0" xmlns="http://www.w3.org/2000/svg"
 width="801.000000pt" height="980.000000pt" viewBox="0 0 801.000000 980.000000"
 preserveAspectRatio="xMidYMid meet">

<g transform="translate(0.000000,980.000000) scale(0.100000,-0.100000)"
fill="#000000" stroke="none">
<path d="M3763 8822 c10 -10 14 -22 10 -25 -3 -4 -1 -7 5 -7 16 0 15 23 0 38
-19 19 -33 14 -15 -6z"/>
<path d="M3510 8771 c0 -5 11 -8 25 -6 38 4 43 15 7 15 -18 0 -32 -4 -32 -9z"/>
<path d="M3593 8729 c2 -12 9 -25 15 -27 17 -5 15 23 -3 38 -13 11 -15 9 -12
-11z"/>
<path d="M3725 8721 c-3 -5 4 -13 16 -16 13 -4 18 -12 15 -22 -4 -10 0 -13 11
-11 10 2 19 12 21 22 3 11 0 16 -7 12 -6 -4 -14 0 -17 8 -7 18 -30 21 -39 7z"/>
<path d="M3290 8704 c-19 -7 -47 -13 -62 -13 -31 -1 -73 -36 -83 -68 -5 -19
-3 -22 12 -17 16 5 16 4 -2 -10 -10 -9 -24 -15 -29 -13 -6 2 -21 -8 -34 -22
-19 -21 -19 -19 4 12 15 21 24 40 21 43 -3 4 3 15 13 27 24 25 19 33 -10 17
-12 -6 -27 -9 -35 -7 -7 3 -17 -5 -24 -19 -6 -13 -16 -24 -22 -24 -8 0 -7 6 2
17 12 14 9 14 -18 -2 -18 -11 -33 -26 -33 -34 0 -8 -3 -11 -6 -8 -4 4 -23 -8
-42 -25 -21 -18 -38 -26 -40 -19 -7 21 -20 11 -53 -45 -19 -31 -49 -73 -66
-94 -18 -21 -33 -43 -33 -49 0 -13 103 88 112 109 3 8 21 23 39 34 l34 18 -33
-33 c-82 -82 -139 -149 -133 -156 3 -4 -2 -1 -11 6 -21 16 -32 10 -48 -29 -7
-17 -19 -29 -26 -28 -8 2 -26 -10 -40 -27 -19 -22 -24 -25 -20 -10 6 19 6 19
-9 1 -8 -10 -12 -23 -9 -27 3 -5 0 -9 -5 -9 -6 0 -11 -5 -11 -11 0 -6 -12 -34
-27 -63 -29 -56 -41 -145 -16 -125 11 9 12 8 7 -5 -3 -9 -11 -16 -18 -16 -14
0 -15 -9 -21 -115 -2 -44 -10 -107 -18 -139 -12 -48 -13 -62 -3 -72 7 -7 19
-33 26 -58 7 -25 16 -46 21 -46 5 0 9 -10 9 -22 0 -48 3 -64 21 -89 10 -14 16
-29 12 -33 -3 -3 -1 -6 6 -6 9 0 11 -9 6 -32 -4 -18 -4 -30 1 -25 4 4 9 17 11
29 4 27 14 37 20 20 3 -6 9 -9 15 -6 7 4 7 -2 3 -17 -18 -56 -24 -92 -12 -80
6 6 20 11 30 11 18 0 16 -3 -8 -26 l-28 -26 16 -52 c9 -28 29 -87 43 -131 15
-44 30 -100 35 -125 6 -33 7 -23 3 40 -2 47 -7 140 -11 207 -3 67 -9 120 -13
118 -4 -3 -2 12 5 33 8 22 9 39 4 43 -10 6 -25 74 -35 156 -6 52 9 83 39 80
16 -1 21 3 19 16 -4 21 14 23 22 2 3 -8 15 -15 26 -15 11 0 20 -4 20 -10 0 -5
11 -10 25 -10 18 0 23 4 19 15 -4 8 -1 15 6 15 6 0 8 5 5 10 -3 6 -1 10 5 10
6 0 13 -7 16 -15 5 -11 11 -12 25 -4 10 5 19 15 19 22 0 7 11 21 25 31 13 10
22 22 20 27 -7 10 30 31 39 21 4 -3 4 1 1 9 -7 18 37 45 54 35 6 -4 11 0 11 8
0 31 20 15 46 -36 48 -95 77 -120 113 -97 13 8 12 9 -6 6 -18 -4 -21 -1 -19
22 1 14 -5 32 -14 39 -13 11 -13 13 0 9 8 -2 20 -14 27 -27 6 -13 24 -30 40
-38 15 -9 34 -22 40 -31 11 -14 13 -13 19 7 3 12 10 22 15 22 5 0 9 6 9 14 0
19 22 26 85 26 56 0 82 17 71 45 -3 9 -2 13 4 10 6 -3 10 4 10 17 0 18 2 20
10 8 8 -13 10 -13 10 -1 0 11 3 10 13 -3 12 -17 15 -16 38 8 13 14 30 26 37
26 6 0 12 7 12 15 0 8 5 15 10 15 6 0 10 -4 10 -9 0 -13 57 4 76 23 8 9 20 16
25 16 5 0 14 11 21 25 6 13 14 22 19 20 10 -7 59 16 59 27 0 4 7 8 16 8 8 0
12 5 9 10 -3 6 1 10 9 10 18 0 90 32 94 42 2 4 10 4 18 1 8 -3 14 -1 14 3 0
14 163 8 191 -6 29 -16 114 -105 133 -140 8 -14 46 -53 85 -88 39 -35 69 -68
66 -73 -4 -5 -1 -9 4 -9 6 0 11 -7 11 -15 0 -9 6 -12 15 -9 8 4 15 1 15 -5 0
-6 5 -11 10 -11 15 0 12 16 -5 34 -17 17 -20 30 -5 21 13 -8 13 8 1 21 -6 5
-3 15 7 24 14 13 15 13 10 0 -3 -8 1 -22 10 -30 14 -12 15 -11 9 9 -4 17 -2
21 9 17 17 -7 18 6 2 22 -17 17 4 15 30 -4 13 -9 26 -13 29 -10 7 6 -124 136
-137 136 -5 0 -11 9 -15 20 -3 11 -20 33 -36 50 -28 27 -29 31 -15 46 9 8 14
20 11 25 -4 5 -2 9 3 9 14 0 88 -69 75 -70 -6 0 -18 8 -25 18 -7 10 -21 21
-30 25 -9 3 10 -30 43 -74 37 -48 67 -79 78 -79 26 0 49 -29 32 -40 -8 -4 -10
-13 -7 -19 11 -17 29 -13 22 4 -3 8 -1 15 4 15 6 0 6 10 0 26 -14 35 -13 35
15 24 14 -5 25 -7 25 -4 0 2 9 0 20 -6 19 -10 19 -10 2 19 -9 17 -28 35 -42
42 -18 8 -21 13 -11 17 9 3 26 -8 40 -24 15 -16 34 -36 44 -43 16 -13 17 -12
9 10 -5 13 -7 30 -4 38 3 9 -1 11 -15 7 -13 -4 -26 1 -39 16 -19 21 -19 21 1
14 23 -9 24 -9 48 -7 22 1 23 43 1 77 -14 21 -15 29 -5 52 13 26 5 40 -33 56
-7 3 -3 12 10 23 26 23 17 39 -36 65 -33 16 -34 17 -12 24 12 3 22 13 22 21 0
16 -24 43 -38 43 -5 0 -12 9 -15 21 -5 18 -8 19 -28 9 -19 -10 -21 -10 -16 3
4 11 0 13 -14 10 -10 -3 -19 0 -19 6 0 6 11 11 25 11 14 0 25 4 25 10 0 14
-35 30 -69 30 -20 0 -29 4 -26 13 6 17 -21 50 -37 45 -7 -3 -23 6 -36 19 -25
25 -37 29 -47 13 -3 -5 2 -10 12 -10 13 0 15 -2 5 -9 -7 -4 -12 -12 -11 -17 5
-27 -4 -25 -26 9 -14 20 -30 37 -35 37 -14 0 -12 -11 6 -31 8 -9 16 -24 18
-32 1 -8 8 -22 15 -31 21 -25 2 -41 -21 -17 -10 12 -17 25 -15 29 9 14 -13 52
-29 52 -13 0 -14 -3 -4 -15 7 -8 8 -15 3 -15 -5 0 -16 9 -26 20 -18 22 -42 26
-53 9 -3 -6 -16 -8 -29 -5 -30 8 -55 -19 -35 -37 10 -9 11 -9 6 1 -5 8 0 12
13 12 11 0 24 -8 30 -17 8 -15 12 -16 23 -5 11 11 10 15 -2 23 -12 8 -9 9 10
7 14 -2 24 -9 23 -16 -2 -6 2 -12 8 -12 18 0 56 -35 51 -48 -2 -6 1 -12 7 -12
6 0 11 -7 11 -15 0 -8 5 -15 10 -15 6 0 10 -4 10 -9 0 -10 -53 -7 -70 4 -6 3
-10 4 -10 1 0 -11 25 -62 37 -74 15 -16 17 -38 4 -46 -12 -8 -21 -45 -11 -51
4 -3 15 11 24 30 14 28 14 38 4 54 -7 11 -8 24 -4 28 5 4 11 2 13 -5 3 -6 9
-10 14 -6 13 8 11 -23 -3 -49 -6 -12 -15 -37 -19 -55 -7 -33 -7 -33 13 -15 20
18 21 17 10 -2 -6 -11 -17 -28 -24 -38 -13 -17 -15 -17 -28 10 -8 15 -21 36
-29 46 -12 14 -12 18 -2 15 8 -2 14 6 16 20 1 12 -2 22 -5 22 -4 0 -13 13 -20
29 -6 16 -19 32 -28 35 -9 3 -24 9 -32 14 -42 24 -62 32 -85 32 -15 0 -24 4
-20 10 9 15 -2 12 -32 -7 -15 -10 -37 -16 -50 -15 -13 2 -30 -1 -37 -7 -17
-15 -86 -10 -86 6 0 12 59 33 93 33 16 0 25 19 10 21 -43 7 -79 4 -85 -5 -5
-7 -8 -5 -8 6 0 13 -7 16 -34 11 -27 -4 -34 -2 -38 15 -7 24 26 42 75 42 24 0
28 3 17 10 -8 5 -11 12 -7 16 3 4 13 1 22 -6 12 -10 13 -16 4 -26 -9 -11 -5
-14 25 -15 20 -1 51 -2 69 -3 31 -1 66 19 53 31 -3 4 -12 1 -18 -5 -15 -15
-32 -16 -23 -2 3 6 1 10 -4 10 -6 0 -11 -4 -11 -10 0 -5 -6 -10 -13 -10 -19 0
-17 32 2 47 14 11 12 14 -17 25 -27 10 -32 17 -27 35 4 16 1 23 -10 23 -8 0
-15 -7 -15 -15 0 -25 -39 -39 -66 -24 -28 15 -31 29 -7 29 14 0 15 2 4 13 -10
10 -14 8 -22 -6 -9 -14 -14 -16 -25 -6 -15 12 -29 6 -29 -13 0 -6 -6 -13 -12
-15 -7 -3 -13 2 -13 11 0 9 -4 16 -10 16 -5 0 -10 -9 -10 -20 0 -11 -3 -20 -7
-20 -5 0 -7 20 -6 45 2 51 -10 58 -29 18 -7 -15 -22 -29 -33 -31 -19 -3 -20
-2 -1 12 18 15 18 16 2 42 -17 24 -22 26 -84 23 -61 -2 -122 11 -122 27 0 4
13 4 29 1 19 -4 32 -2 35 6 5 9 7 9 12 0 8 -17 24 -16 24 0 0 20 -37 51 -44
38 -7 -11 -59 -8 -89 4 -9 4 -31 5 -47 3 -17 -3 -30 -1 -30 4 0 12 -49 8 -90
-8z m-15 -44 c-3 -5 -14 -10 -23 -10 -15 0 -15 2 -2 10 20 13 33 13 25 0z
m163 -12 c-3 -7 -20 -18 -38 -26 -30 -12 -32 -12 -21 2 7 8 10 20 6 26 -4 6 6
10 25 10 20 0 30 -4 28 -12z m-348 -35 c-1 -15 -30 -46 -37 -40 -3 4 2 16 12
27 19 21 25 24 25 13z m180 -1 c0 -4 -9 -8 -20 -9 -11 -1 -18 2 -15 8 7 11 35
12 35 1z m-240 -15 c0 -15 -67 -83 -74 -76 -6 6 56 88 67 89 4 0 7 -6 7 -13z
m660 -1 c0 -2 -16 -16 -35 -30 -27 -21 -33 -23 -28 -9 10 29 24 43 44 43 11 0
19 -2 19 -4z m-110 -16 c0 -6 -11 -8 -27 -4 -40 10 -41 14 -5 14 18 0 32 -5
32 -10z m35 0 c3 -5 -1 -10 -9 -10 -9 0 -16 5 -16 10 0 6 4 10 9 10 6 0 13 -4
16 -10z m-555 -50 c0 -5 8 -7 18 -3 11 4 7 -5 -12 -25 -28 -30 -51 -37 -27 -9
6 8 9 22 5 31 -3 9 -1 16 5 16 6 0 11 -4 11 -10z m567 -6 c-3 -3 -12 -4 -19
-1 -8 3 -5 6 6 6 11 1 17 -2 13 -5z m343 2 c0 -2 3 -12 6 -21 5 -13 2 -16 -17
-15 -40 4 -49 1 -49 -16 0 -12 -9 -15 -37 -14 -44 2 -83 -8 -83 -22 0 -5 5 -6
12 -2 7 4 8 3 4 -5 -6 -9 -11 -9 -21 -1 -8 7 -19 9 -25 5 -5 -3 -10 -2 -10 4
0 17 43 41 76 41 28 0 72 16 114 40 17 10 30 12 30 6z m-560 -69 c0 -2 -10
-12 -22 -23 l-23 -19 19 23 c18 21 26 27 26 19z m287 -13 c-3 -3 -12 -4 -19
-1 -8 3 -5 6 6 6 11 1 17 -2 13 -5z m-936 -167 c-10 -9 -11 -8 -5 6 3 10 9 15
12 12 3 -3 0 -11 -7 -18z m1671 -19 c-6 -6 -7 0 -4 19 5 21 7 23 10 9 2 -10 0
-22 -6 -28z m-1781 -41 l-34 -32 29 37 c15 20 30 35 33 32 3 -2 -10 -19 -28
-37z m78 3 c-20 -38 -39 -52 -39 -29 0 15 39 69 51 69 5 0 -1 -18 -12 -40z
m1385 27 c-2 -7 -18 -18 -36 -25 -34 -13 -32 -7 9 19 35 22 33 22 27 6z m308
-29 c-7 -7 -12 -8 -12 -2 0 14 12 26 19 19 2 -3 -1 -11 -7 -17z m-642 -98 c0
-5 -5 -10 -11 -10 -5 0 -7 5 -4 10 3 6 8 10 11 10 2 0 4 -4 4 -10z m-1180 -12
c0 6 4 12 10 12 5 0 0 -16 -11 -35 -22 -37 -37 -49 -19 -16 13 25 13 34 0 26
-11 -7 -14 8 -3 18 4 4 10 2 15 -5 6 -10 8 -10 8 0z m1810 -78 c0 -11 -4 -20
-10 -20 -5 0 -10 9 -10 20 0 11 5 20 10 20 6 0 10 -9 10 -20z m154 -215 c3 -8
1 -15 -4 -15 -6 0 -10 7 -10 15 0 8 2 15 4 15 2 0 6 -7 10 -15z m-2012 -231
c-6 -35 -12 -29 -12 14 0 23 3 32 9 24 4 -7 6 -24 3 -38z"/>
<path d="M3633 8694 c-18 -9 -33 -20 -33 -25 0 -13 44 -11 57 2 9 9 10 7 6
-10 -3 -11 -1 -21 4 -21 10 0 33 43 33 60 0 15 -31 12 -67 -6z"/>
<path d="M3810 8682 c0 -12 6 -22 13 -22 7 0 14 -10 14 -22 3 -38 63 -68 63
-32 0 9 -6 14 -14 11 -15 -6 -44 23 -39 39 2 6 -6 19 -17 29 -19 18 -20 18
-20 -3z"/>
<path d="M3970 8680 c0 -5 5 -10 10 -10 6 0 10 5 10 10 0 6 -4 10 -10 10 -5 0
-10 -4 -10 -10z"/>
<path d="M4004 8658 c1 -13 8 -23 14 -22 7 1 22 2 35 3 l22 2 -24 19 c-32 27
-52 26 -47 -2z"/>
<path d="M4157 8669 c7 -7 15 -10 18 -7 3 3 -2 9 -12 12 -14 6 -15 5 -6 -5z"/>
<path d="M3697 8650 c-3 -11 -3 -20 -1 -20 2 0 8 9 14 20 6 11 7 20 2 20 -6 0
-12 -9 -15 -20z"/>
<path d="M3782 8625 c2 -20 8 -35 16 -35 23 0 25 30 3 51 l-21 20 2 -36z"/>
<path d="M2927 8613 c-39 -27 -50 -47 -19 -36 22 9 80 63 67 63 -6 0 -27 -12
-48 -27z"/>
<path d="M3922 8609 c-8 -12 -9 -18 -3 -14 6 3 11 -1 11 -10 0 -9 -4 -14 -9
-11 -10 6 -24 -35 -15 -44 3 -3 19 10 35 28 24 27 27 36 19 52 -14 25 -22 25
-38 -1z"/>
<path d="M4160 8591 c0 -5 6 -12 13 -15 6 -3 -7 -3 -29 0 -40 5 -42 4 -40 -20
0 -14 1 -26 2 -26 0 0 15 7 32 15 28 15 34 15 62 0 57 -29 69 -13 17 23 -52
35 -57 37 -57 23z"/>
<path d="M4010 8553 l0 -38 15 29 c15 28 13 46 -6 46 -5 0 -9 -17 -9 -37z"/>
<path d="M2838 8547 c-9 -6 -23 -24 -33 -40 -25 -38 4 -27 34 14 25 33 24 46
-1 26z"/>
<path d="M4040 8535 c-7 -8 -8 -15 -2 -15 5 0 15 7 22 15 7 8 8 15 2 15 -5 0
-15 -7 -22 -15z"/>
<path d="M2693 8362 c-13 -30 -22 -56 -19 -59 10 -11 26 9 38 49 9 30 20 44
42 54 l31 14 -34 -2 c-30 -2 -36 -8 -58 -56z"/>
<path d="M4287 8393 c-4 -3 -7 -11 -7 -17 0 -6 5 -5 12 2 6 6 9 14 7 17 -3 3
-9 2 -12 -2z"/>
<path d="M4037 8384 c-4 -4 -7 -14 -7 -23 0 -11 3 -12 11 -4 6 6 10 16 7 23
-2 6 -7 8 -11 4z"/>
<path d="M4490 7936 c0 -2 8 -10 18 -17 15 -13 16 -12 3 4 -13 16 -21 21 -21
13z"/>
<path d="M4380 7787 c7 -21 7 -26 -1 -21 -7 4 -10 1 -7 -7 3 -8 18 -22 35 -32
l31 -18 -6 23 c-3 13 -18 36 -34 53 l-29 30 11 -28z"/>
<path d="M4455 7720 c3 -5 8 -10 11 -10 2 0 4 5 4 10 0 6 -5 10 -11 10 -5 0
-7 -4 -4 -10z"/>
<path d="M4403 7686 c3 -18 46 -60 53 -53 4 4 0 15 -9 25 -25 27 -21 38 6 16
22 -18 22 -18 5 1 -19 20 -58 28 -55 11z"/>
<path d="M4013 7400 c-17 -4 -76 -10 -130 -14 -99 -8 -242 -45 -261 -69 -5 -7
-12 -22 -15 -35 -4 -18 0 -25 19 -32 13 -5 24 -15 24 -21 0 -6 -7 -9 -15 -5
-9 3 -15 0 -15 -9 0 -8 -4 -15 -8 -15 -13 0 -32 -47 -32 -78 0 -57 82 -163
112 -145 4 2 40 -7 78 -21 92 -34 119 -34 113 -2 -5 22 -1 24 71 35 73 10 116
27 116 44 0 4 -4 6 -9 2 -5 -3 -13 -1 -16 5 -4 6 -22 8 -43 5 l-37 -5 35 16
c19 10 52 26 73 36 28 13 61 18 126 18 105 0 125 12 95 57 -10 16 -17 31 -16
36 1 4 -2 7 -8 7 -12 0 -41 56 -33 64 4 3 -9 3 -28 0 -53 -10 -54 -10 -54 11
0 11 6 19 13 18 6 -2 12 2 12 7 0 6 7 10 15 10 18 0 20 20 3 20 -7 0 -5 5 5
11 24 14 21 22 -13 37 -36 16 -132 23 -177 12z m132 -77 c-11 -3 -23 -10 -27
-17 -5 -7 -8 -7 -8 0 0 16 11 24 34 23 20 -1 20 -1 1 -6z"/>
<path d="M4825 7303 c-28 -31 -32 -48 -11 -56 21 -8 69 2 78 16 8 13 12 0 10
-41 -1 -12 2 -20 7 -18 4 3 7 -15 7 -39 -1 -46 7 -58 18 -29 11 29 6 63 -15
107 -21 43 -22 44 -48 31 -23 -12 -26 -12 -29 2 -5 22 7 31 18 14 5 -8 12 -11
17 -6 4 4 -1 12 -11 18 -15 8 -16 12 -5 19 10 6 10 9 2 9 -7 0 -24 -12 -38
-27z"/>
<path d="M3149 7236 c-2 -2 -55 -7 -118 -10 -62 -4 -121 -11 -131 -16 -10 -6
-31 -10 -47 -10 -20 0 -41 -13 -71 -41 -43 -42 -50 -65 -32 -100 11 -20 12
-20 54 18 14 12 61 12 74 -1 4 -4 0 -6 -8 -4 -8 2 -14 -3 -12 -9 1 -7 -2 -13
-7 -13 -25 0 -43 -131 -22 -153 5 -4 38 -1 74 7 72 17 197 12 197 -8 0 -6 -17
-19 -37 -28 -21 -9 -31 -17 -23 -18 87 -5 140 -3 140 5 0 6 4 4 9 -4 21 -33
56 -23 108 32 69 72 97 130 88 176 -4 20 -7 43 -7 52 1 10 -17 24 -41 35 -23
11 -54 31 -68 45 -14 15 -35 32 -47 38 -20 11 -64 15 -73 7z m-104 -246 c3 -5
1 -10 -4 -10 -6 0 -11 5 -11 10 0 6 2 10 4 10 3 0 8 -4 11 -10z"/>
<path d="M4830 7203 c1 -5 9 -24 20 -43 23 -41 27 -23 5 20 -15 29 -25 38 -25
23z"/>
<path d="M4716 7068 c-12 -39 -13 -58 -2 -67 9 -8 12 -3 10 19 -2 31 5 37 22
20 7 -7 11 -6 11 3 0 20 -36 42 -41 25z"/>
<path d="M4825 6993 c4 -21 9 -45 12 -53 3 -8 5 -24 4 -35 -2 -20 -1 -20 14
-1 18 24 19 63 3 99 -20 42 -40 35 -33 -10z"/>
<path d="M2604 6852 c4 -36 16 -80 31 -109 25 -46 26 -46 19 -13 -3 19 -11 38
-17 42 -6 3 -7 25 -4 55 5 34 4 44 -4 33 -8 -12 -9 -8 -7 14 2 18 -2 31 -10
34 -10 3 -12 -9 -8 -56z"/>
<path d="M4747 6823 c-4 -3 -7 -11 -7 -17 0 -6 5 -5 12 2 6 6 9 14 7 17 -3 3
-9 2 -12 -2z"/>
<path d="M4680 6705 c0 -9 6 -12 15 -9 8 4 15 10 15 15 0 5 -7 9 -15 9 -8 0
-15 -7 -15 -15z"/>
<path d="M2730 6665 c-16 -19 -5 -93 17 -117 18 -21 58 -25 50 -5 -11 29 -27
84 -32 110 -6 30 -17 34 -35 12z"/>
<path d="M3710 6568 c-30 -5 -64 -9 -75 -10 -11 0 -33 -17 -50 -38 -16 -20
-34 -38 -40 -39 -72 -13 -105 -12 -132 8 -35 25 -108 33 -108 11 0 -8 17 -26
38 -40 20 -14 37 -29 36 -34 0 -5 5 -13 13 -17 9 -6 10 -9 1 -9 -7 0 -19 -16
-27 -35 -8 -19 -22 -35 -30 -35 -8 0 -20 -9 -26 -20 -6 -11 -14 -19 -18 -18
-4 0 -22 -5 -40 -12 -25 -9 -30 -15 -20 -21 10 -7 9 -9 -4 -9 -25 0 -38 -31
-38 -93 0 -40 5 -58 18 -70 19 -18 52 -23 52 -9 0 15 75 28 109 19 24 -6 37
-4 50 6 9 9 70 22 151 32 145 19 152 20 310 33 58 4 119 15 135 23 18 9 46 14
68 11 21 -2 37 0 36 4 -3 19 2 29 9 17 4 -6 7 13 7 43 0 39 -3 53 -12 49 -7
-2 -13 0 -13 4 0 26 -123 71 -136 50 -2 -4 -16 -4 -31 2 -22 8 -25 7 -21 -9 4
-13 -1 -17 -18 -17 -30 2 -42 14 -25 24 8 5 -5 7 -31 4 -40 -5 -45 -3 -56 21
-6 14 -17 25 -24 24 -27 -6 -18 38 17 76 19 21 35 43 35 49 0 6 -3 7 -7 4 -3
-4 -16 1 -27 11 -18 15 -30 17 -76 10z m-117 -153 c-3 -9 -8 -14 -10 -11 -3 3
-2 9 2 15 9 16 15 13 8 -4z m-23 -35 c0 -5 -4 -10 -10 -10 -5 0 -10 5 -10 10
0 6 5 10 10 10 6 0 10 -4 10 -10z m280 -34 c0 -3 -4 -8 -10 -11 -5 -3 -10 -1
-10 4 0 6 5 11 10 11 6 0 10 -2 10 -4z m10 -46 c0 -5 7 -10 15 -10 9 0 15 -9
15 -25 0 -25 -2 -26 -60 -24 -34 1 -63 5 -65 9 -6 10 20 31 54 47 33 15 41 15
41 3z m90 -35 c0 -9 -9 -15 -22 -14 -17 1 -19 2 -5 6 9 2 17 9 17 14 0 5 2 9
5 9 3 0 5 -7 5 -15z m-262 -10 c1 -1 -16 -14 -39 -30 -36 -24 -48 -26 -88 -21
-25 4 -59 9 -75 11 -16 3 -36 -1 -44 -8 -12 -10 -14 -9 -10 3 2 8 20 18 39 22
19 5 43 13 54 18 27 12 71 17 120 11 22 -2 41 -5 43 -6z m-274 -54 c8 -13 -48
-33 -76 -28 l-23 4 23 8 c12 4 22 11 22 16 0 12 47 12 54 0z"/>
<path d="M2700 6525 c0 -17 22 -45 35 -45 8 0 15 3 15 8 -1 9 -50 46 -50 37z"/>
<path d="M2865 6330 c-9 -15 -1 -23 21 -18 15 3 16 4 1 16 -11 9 -17 10 -22 2z"/>
<path d="M4501 6264 c0 -11 3 -14 6 -6 3 7 2 16 -1 19 -3 4 -6 -2 -5 -13z"/>
<path d="M4364 6242 c4 -7 2 -12 -4 -12 -8 0 -8 -6 0 -20 7 -14 8 -26 1 -38
-6 -9 -11 -11 -11 -4 0 6 -5 12 -10 12 -6 0 -8 -11 -4 -25 4 -18 1 -32 -11
-45 -17 -18 -17 -22 -2 -37 8 -10 18 -35 22 -55 6 -32 4 -39 -11 -44 -40 -12
-49 -22 -49 -53 0 -26 -2 -29 -11 -16 -6 8 -18 13 -26 10 -9 -4 -18 0 -21 9
-4 9 -14 12 -27 9 -11 -3 -19 -8 -16 -11 10 -9 -15 -42 -32 -42 -14 0 -15 -2
-2 -10 8 -5 11 -12 7 -16 -3 -4 -14 -1 -24 7 -14 11 -15 11 -9 0 7 -10 4 -12
-12 -7 -12 4 -23 2 -28 -5 -5 -8 -2 -10 7 -5 8 4 5 0 -6 -9 -56 -45 -124 -118
-135 -145 -12 -30 -13 -30 -33 -13 -14 13 -21 15 -24 6 -3 -7 -9 -13 -14 -13
-6 0 -7 5 -4 10 3 6 1 10 -4 10 -6 0 -11 -4 -11 -10 0 -5 -9 -10 -20 -10 -11
0 -20 -6 -20 -14 0 -19 -25 -27 -39 -13 -8 8 -11 7 -11 -3 0 -7 -3 -10 -7 -7
-3 4 -12 -2 -20 -13 -8 -11 -19 -20 -25 -20 -7 0 -6 6 2 15 10 13 9 15 -9 15
-11 0 -21 -4 -21 -10 0 -5 -7 -10 -16 -10 -8 0 -12 5 -9 10 3 6 -1 11 -9 11
-9 1 -26 2 -38 3 -14 1 -22 7 -20 16 3 11 -1 10 -16 -3 -18 -16 -19 -16 -30 7
-8 17 -17 23 -36 21 -27 -3 -36 9 -13 18 6 3 -3 4 -21 2 -20 -2 -30 0 -26 6 7
11 -29 49 -46 49 -5 0 -10 6 -10 14 0 8 -8 21 -17 28 -10 7 -18 19 -19 26 -1
6 -2 15 -2 20 -1 4 -28 9 -59 10 -46 3 -64 9 -85 30 -16 14 -28 34 -28 45 0
11 -16 34 -35 51 -21 20 -35 42 -35 56 0 13 -3 20 -6 17 -4 -4 -16 4 -28 16
-28 31 -78 62 -93 59 -8 -2 -10 3 -7 13 5 11 0 18 -15 22 -13 3 -20 11 -17 18
2 7 -5 21 -16 32 -20 18 -21 18 -14 -7 4 -14 18 -54 31 -90 60 -166 60 -187
-7 -237 -112 -83 -220 -142 -376 -204 -91 -36 -104 -36 -30 0 32 15 54 32 50
36 -4 5 -2 5 4 2 6 -3 32 2 57 11 48 19 79 40 40 28 -16 -5 -23 -3 -23 6 0 9
-3 9 -8 2 -4 -6 -20 -14 -37 -18 -22 -5 -26 -4 -15 4 23 15 2 12 -62 -10 -69
-23 -109 -44 -65 -34 15 3 27 3 27 0 0 -9 -71 -52 -100 -61 -14 -4 -32 -13
-40 -20 -21 -17 -53 -16 -39 2 6 7 17 13 24 13 7 0 31 10 53 23 29 16 38 27
32 36 -4 8 -13 10 -20 6 -9 -6 -11 -4 -5 5 10 16 -48 7 -121 -20 -29 -10 -55
-16 -59 -12 -5 4 -5 2 -2 -4 4 -7 -4 -11 -21 -11 -36 -1 -125 -33 -135 -50 -4
-7 -14 -13 -22 -13 -8 0 -30 -9 -50 -20 -19 -11 -52 -30 -72 -41 l-38 -21 19
21 c19 21 19 21 0 21 -36 0 -154 -67 -154 -88 0 -7 -8 -15 -17 -19 -10 -3 -30
-15 -45 -25 -17 -11 -28 -14 -30 -7 -2 6 -42 -26 -88 -70 -62 -60 -86 -77 -90
-65 -4 10 -13 0 -28 -31 -12 -25 -29 -45 -37 -45 -9 0 -13 -4 -10 -10 10 -16
24 -12 48 16 12 14 31 30 41 36 17 9 16 6 -4 -22 -12 -17 -30 -34 -39 -38 -9
-3 -20 -10 -26 -14 -5 -5 -48 -38 -95 -73 -153 -118 -166 -129 -201 -179 -43
-63 -53 -119 -27 -164 24 -43 23 -46 -11 -26 -16 9 -36 14 -44 11 -26 -10 -3
-80 87 -257 46 -91 86 -177 89 -191 6 -23 -3 -36 -59 -95 -36 -38 -82 -94
-102 -124 -38 -56 -111 -201 -152 -300 -13 -30 -55 -127 -95 -215 -213 -472
-322 -742 -402 -990 -48 -152 -50 -160 -52 -253 -2 -68 -8 -94 -31 -144 -16
-33 -45 -113 -65 -177 -20 -64 -41 -125 -46 -136 -4 -11 -24 -78 -44 -150 -34
-122 -80 -271 -143 -460 -38 -114 -35 -189 12 -331 67 -203 69 -308 7 -404
-60 -93 -61 -95 -61 -311 l0 -199 1379 0 c1304 0 1379 1 1386 17 4 10 9 29 11
43 1 13 6 26 11 27 4 2 8 22 7 45 -1 24 3 83 7 133 5 50 10 110 12 135 2 25 5
47 7 50 2 3 4 10 5 15 2 6 4 12 5 15 1 3 4 16 5 30 4 38 34 181 40 190 3 5 10
60 15 122 6 62 14 133 19 158 22 109 44 234 61 345 10 66 26 161 35 210 8 50
18 110 21 135 2 25 7 56 9 70 3 14 5 77 6 140 1 63 5 120 9 125 4 6 11 48 15
95 4 47 16 155 27 240 10 85 21 191 24 235 2 44 9 116 15 160 5 44 12 103 14
130 5 61 15 151 21 185 18 115 31 269 39 470 3 58 7 121 10 140 3 19 7 52 10
74 2 21 9 44 15 51 6 8 13 24 15 37 7 47 18 69 31 64 8 -3 14 0 14 7 0 8 4 6
10 -3 6 -9 10 -10 10 -3 0 7 10 18 22 24 18 10 24 8 40 -11 l18 -22 21 27 c26
32 31 129 8 131 -42 3 -43 3 -25 23 16 17 15 20 -19 48 -19 17 -35 35 -35 41
0 5 -7 13 -16 16 -9 4 -14 13 -10 21 3 9 -1 18 -10 22 -8 3 -13 12 -10 19 3 8
1 14 -4 14 -6 0 -10 5 -10 11 0 6 7 9 14 6 11 -4 13 -1 9 11 -6 14 -5 15 9 2
9 -8 14 -19 11 -25 -2 -5 3 -1 11 9 14 17 16 17 16 3 0 -11 7 -15 21 -12 11 2
27 -4 36 -15 9 -10 21 -16 27 -12 18 11 36 11 36 0 0 -6 11 -8 25 -4 17 4 27
2 30 -6 4 -9 28 -14 73 -15 65 -1 157 -9 157 -13 0 -1 15 -2 33 -3 17 -1 32 1
32 5 0 4 7 5 15 1 21 -7 195 -10 195 -2 0 3 12 6 28 6 15 0 44 4 66 8 28 6 40
4 47 -6 7 -11 9 -11 9 4 0 20 26 23 45 3 18 -18 59 -9 82 17 10 11 13 17 6 14
-6 -4 -14 -3 -17 2 -3 5 2 12 11 16 10 3 19 3 20 -2 9 -25 23 -35 38 -29 11 4
15 13 12 25 -4 15 5 23 40 36 24 10 55 18 69 19 13 0 24 5 24 9 0 5 5 5 10 2
6 -3 10 0 10 7 1 7 8 0 16 -15 9 -16 18 -27 21 -24 2 3 0 14 -6 25 -15 28 -15
29 19 41 17 5 30 6 30 1 0 -4 3 -17 6 -27 6 -16 5 -16 -9 2 -10 12 -16 15 -17
7 0 -8 -5 -10 -12 -6 -8 5 -9 2 -5 -10 4 -10 7 -22 7 -27 0 -5 15 -3 34 5 26
11 36 11 39 3 6 -18 -12 -47 -28 -47 -8 0 -15 -4 -15 -10 0 -5 -6 -10 -13 -10
-7 0 -23 -9 -36 -21 -12 -12 -34 -25 -49 -29 -15 -4 -26 -12 -25 -18 2 -6 -7
-17 -19 -23 -20 -11 -33 -14 -78 -18 -11 -1 -11 -4 -2 -13 17 -17 15 -28 -7
-28 -10 0 -21 -7 -25 -15 -3 -8 -1 -15 4 -15 6 0 10 -4 10 -10 0 -5 -7 -10
-16 -10 -10 0 -14 -6 -11 -14 4 -11 1 -13 -11 -10 -15 5 -14 4 1 -6 22 -14 15
-41 -20 -76 -19 -20 -23 -28 -13 -34 9 -6 7 -10 -9 -15 -14 -4 -20 -12 -17
-21 3 -8 1 -14 -5 -14 -16 0 -36 -24 -31 -38 2 -6 -1 -12 -6 -12 -5 0 -9 -33
-8 -74 1 -59 -3 -78 -17 -94 -28 -31 -3 -36 29 -7 15 14 28 35 29 45 2 26 14
38 23 23 5 -7 11 -7 20 3 11 12 10 14 -5 14 -10 0 0 11 25 27 24 15 38 29 32
31 -20 7 -10 20 20 27 18 4 30 13 30 22 0 9 3 13 6 10 8 -8 64 24 64 36 0 4 4
6 8 3 5 -3 21 8 36 25 32 34 45 31 39 -8 l-5 -28 17 30 c22 40 29 45 22 15 -5
-22 -3 -25 23 -25 17 0 30 4 30 8 0 21 18 -6 22 -33 4 -24 2 -27 -9 -19 -10 9
-13 8 -13 -4 0 -8 5 -17 12 -19 8 -3 5 -11 -9 -23 -23 -20 -22 -38 1 -29 8 3
17 1 20 -5 4 -5 -3 -12 -14 -16 -11 -3 -20 -10 -20 -15 0 -5 -6 -7 -14 -4 -9
3 -13 -1 -13 -13 1 -10 -4 -17 -10 -15 -23 4 -14 -15 24 -52 26 -25 32 -36 21
-36 -9 0 -20 -5 -24 -11 -5 -8 1 -10 19 -7 15 3 24 1 21 -3 -11 -19 8 -30 21
-12 7 10 11 21 9 24 -2 4 5 5 15 2 14 -4 21 1 24 19 3 17 5 14 6 -12 2 -27 4
-31 10 -16 6 17 8 17 14 4 4 -12 -3 -20 -26 -29 -18 -6 -35 -11 -39 -11 -4 1
-5 -5 -1 -14 3 -8 11 -13 18 -10 9 3 11 -2 7 -17 -5 -20 -4 -21 13 -7 10 8 16
10 13 5 -4 -6 -2 -17 3 -25 8 -13 10 -13 20 0 9 13 10 13 6 -1 -3 -9 0 -22 6
-28 8 -8 8 -11 -2 -11 -7 0 -10 -4 -6 -10 8 -13 -5 -61 -16 -54 -5 3 -9 -12
-8 -33 1 -31 2 -33 8 -14 6 23 7 23 21 5 9 -10 10 -15 3 -10 -17 9 -17 -16 -1
-32 9 -9 8 -12 -5 -12 -9 0 -17 -5 -17 -11 0 -5 6 -7 13 -3 9 6 9 4 1 -7 -6
-8 -12 -34 -13 -58 0 -25 -5 -47 -11 -51 -12 -8 -9 -50 5 -50 5 0 4 -4 -4 -9
-10 -6 -11 -13 -2 -29 9 -17 8 -23 -6 -32 -17 -11 -17 -11 0 -6 11 3 17 0 17
-9 0 -8 -4 -15 -8 -15 -4 0 -7 -15 -7 -32 1 -18 -4 -36 -9 -40 -7 -5 -6 -8 2
-8 7 0 10 -5 7 -11 -4 -5 -9 -36 -12 -67 -2 -31 -10 -63 -16 -71 -10 -12 -9
-14 6 -8 9 3 17 2 17 -3 0 -6 -4 -10 -9 -10 -5 0 -11 -7 -14 -14 -4 -10 -1
-13 9 -9 11 4 13 0 6 -18 -5 -13 -7 -30 -4 -38 3 -8 0 -11 -7 -7 -12 8 -15 -6
-4 -18 10 -10 13 -37 3 -31 -5 3 -11 1 -15 -5 -3 -5 -3 -10 2 -10 4 0 9 -11 9
-25 1 -14 -2 -23 -6 -20 -5 3 -6 -4 -3 -15 4 -15 0 -20 -13 -20 -16 0 -16 -2
-4 -9 8 -6 18 -7 22 -5 4 3 8 3 8 0 0 -6 -106 -56 -119 -56 -4 0 -16 -9 -26
-20 -11 -13 -25 -18 -37 -14 -12 3 -18 0 -18 -10 0 -11 9 -14 38 -11 20 1 39
4 42 5 3 1 8 2 13 1 12 -2 8 17 -5 22 -7 3 -8 6 -2 6 5 1 20 -8 33 -20 12 -12
33 -22 46 -23 13 0 21 -4 18 -8 -2 -5 0 -8 6 -8 6 0 7 -11 2 -28 -5 -15 -7
-39 -5 -55 1 -15 -4 -34 -12 -42 -12 -12 -12 -15 -2 -15 10 0 9 -3 -2 -10 -9
-6 -10 -10 -3 -10 8 0 8 -7 0 -29 -6 -16 -7 -36 -2 -47 8 -18 8 -34 0 -83 -7
-42 -17 -37 -14 6 2 23 0 46 -4 50 -5 4 -7 -43 -6 -105 1 -62 6 -112 9 -112 9
0 5 -33 -9 -79 -6 -19 -8 -37 -6 -40 3 -2 5 2 5 9 0 11 2 12 13 1 10 -10 9
-15 -3 -24 -9 -7 -16 -32 -17 -61 -2 -35 -9 -56 -25 -73 -22 -24 -13 -33 12
-10 8 7 6 0 -4 -16 -14 -23 -16 -42 -11 -104 3 -41 8 -79 11 -84 3 -5 -3 -9
-13 -9 -10 0 -23 -11 -30 -25 -9 -20 -8 -25 3 -25 20 0 17 -10 -8 -31 -11 -11
-18 -22 -14 -26 4 -5 12 0 17 10 14 25 29 21 29 -8 0 -14 -5 -25 -12 -25 -9 0
-9 -3 0 -12 17 -17 15 -28 -4 -28 -9 0 -14 -6 -11 -12 2 -7 -2 -21 -11 -30
-11 -13 -12 -18 -2 -18 6 0 10 -7 7 -14 -4 -10 -1 -13 9 -9 20 7 18 -7 -3 -23
-17 -13 -17 -13 2 -14 19 -1 19 -1 3 -14 -10 -7 -18 -18 -18 -25 0 -7 -10 -10
-25 -7 -14 3 -25 0 -25 -6 0 -5 7 -7 15 -4 9 3 18 -1 22 -9 5 -13 7 -13 20 2
13 17 13 16 7 -7 -4 -13 -13 -30 -20 -38 -8 -7 -14 -20 -14 -28 0 -8 -4 -14
-10 -14 -13 0 -13 17 0 25 6 3 10 11 10 16 0 6 -4 7 -10 4 -5 -3 -7 0 -4 8 4
10 -2 15 -20 15 -22 0 -23 -2 -10 -15 15 -15 19 -44 7 -42 -22 4 -43 -2 -43
-12 0 -7 10 -9 25 -5 18 5 27 1 35 -13 13 -25 13 -41 0 -21 -6 10 -10 11 -10
3 0 -8 -13 -13 -30 -13 -16 0 -30 -4 -30 -9 0 -5 -8 -12 -17 -14 -11 -3 -7 -5
10 -6 15 0 27 -5 27 -11 0 -5 -8 -7 -17 -3 -14 5 -15 3 -6 -7 15 -16 36 -3 30
20 -4 15 1 18 22 16 19 -1 26 -7 24 -21 -1 -11 3 -23 9 -26 5 -4 2 -9 -7 -13
-15 -5 -17 -2 -11 26 5 30 4 31 -9 14 -10 -14 -12 -24 -4 -38 6 -11 7 -27 3
-36 -14 -34 -13 -51 4 -56 10 -3 18 -15 18 -27 0 -19 -1 -19 -13 -3 -11 15
-13 15 -13 2 0 -8 7 -21 15 -28 21 -18 19 -39 -4 -33 -11 3 -21 -2 -24 -12 -6
-13 -2 -26 20 -64 2 -2 9 2 18 9 16 14 17 12 19 -60 1 -19 7 -45 14 -57 15
-26 16 -60 2 -68 -16 -10 -12 -25 5 -19 10 4 15 0 15 -15 0 -12 -4 -21 -10
-21 -5 0 -10 5 -10 10 0 6 -4 10 -10 10 -5 0 -10 -17 -10 -37 0 -40 -15 -36
-23 7 -3 14 -5 9 -3 -13 1 -27 -1 -36 -11 -33 -7 3 -13 -2 -13 -10 0 -9 6 -14
12 -12 17 6 41 -19 32 -33 -4 -7 -3 -9 3 -6 6 4 14 0 17 -8 3 -9 1 -15 -7 -14
-24 3 -37 -1 -37 -12 0 -6 7 -9 15 -5 8 3 15 1 15 -4 0 -5 -11 -12 -25 -16
-27 -7 -25 -19 2 -19 9 0 18 -6 21 -14 3 -10 0 -12 -12 -8 -11 5 -16 1 -16
-13 0 -13 -5 -18 -15 -14 -8 4 -15 1 -15 -5 0 -6 7 -11 15 -11 17 0 20 -16 5
-25 -7 -4 -7 -13 0 -26 11 -19 37 -19 1514 -19 l1504 0 6 102 c3 57 5 111 3
120 -5 27 -17 34 -17 10 0 -28 -17 -29 -25 -2 -9 29 3 77 36 139 33 61 40 103
11 58 -21 -31 -31 -28 -24 8 2 13 13 27 23 30 10 4 22 18 25 33 11 48 22 86
49 162 23 62 27 86 23 141 -3 36 -12 81 -21 98 -10 20 -13 40 -8 52 4 11 1 53
-7 92 -7 40 -16 97 -19 127 -3 30 -9 60 -13 65 -4 6 -11 35 -15 65 -4 30 -17
98 -30 150 -13 52 -26 115 -30 140 -8 55 -30 131 -45 159 -6 12 -14 70 -17
129 -8 150 -8 160 7 227 7 36 10 88 6 132 -8 102 -53 358 -73 412 -8 25 -19
64 -23 86 -4 22 -20 78 -34 125 -15 47 -34 117 -41 157 -8 39 -31 107 -51 150
-44 96 -61 171 -73 336 -7 86 -15 134 -25 149 -9 12 -16 40 -16 61 0 44 -15
77 -34 77 -13 0 -26 40 -26 84 0 11 -12 44 -25 71 -14 28 -25 60 -25 71 0 34
-28 104 -55 140 -21 27 -23 36 -15 65 22 77 13 110 -52 193 -28 36 -38 57 -36
77 2 21 -6 37 -32 64 -35 36 -31 43 14 25 28 -10 34 -2 14 19 -11 11 -9 11 9
0 31 -18 43 -1 14 20 -13 9 -39 31 -59 49 l-35 32 34 -6 c19 -4 43 -11 54 -17
18 -9 19 -9 6 6 -7 10 -10 17 -6 17 5 0 0 10 -11 22 -17 19 -17 21 -2 15 24
-8 31 8 16 33 -11 17 -10 25 5 52 10 17 15 33 12 36 -3 3 -5 0 -5 -6 0 -7 -5
-12 -11 -12 -5 0 -7 5 -4 10 3 6 -2 10 -12 11 -16 0 -16 1 2 8 19 8 19 8 -4
21 -19 9 -21 14 -10 21 12 7 11 9 -1 9 -12 1 -11 3 3 11 29 17 19 29 -25 29
-47 0 -49 6 -3 11 47 5 61 20 33 35 -13 8 -17 13 -10 14 23 0 12 30 -15 36
-25 7 -25 8 -8 15 19 7 18 8 -2 8 -13 1 -23 6 -23 11 0 6 -21 10 -47 10 -35 0
-44 3 -33 10 8 5 26 10 40 11 14 0 19 3 12 6 -10 4 -9 8 5 19 16 12 13 14 -27
15 l-45 1 40 13 c22 8 34 14 28 14 -20 1 -15 21 5 22 10 0 6 4 -10 9 -33 10
-215 6 -243 -6 -18 -7 -18 -6 -6 9 11 15 11 17 -2 17 -8 0 -31 -7 -51 -15 -20
-8 -36 -12 -36 -8 0 5 19 16 42 25 30 13 45 15 54 7 17 -14 140 -3 174 16 24
14 23 14 -27 15 -28 0 -55 5 -58 10 -4 6 -11 7 -17 4 -7 -4 -8 -2 -4 4 5 8 -3
12 -25 12 l-33 0 21 20 c12 10 33 22 47 26 39 9 31 22 -19 30 -25 3 -45 9 -45
12 0 11 36 31 56 32 12 0 28 7 35 17 13 15 12 15 -6 6 -11 -6 -38 -13 -60 -15
-22 -3 -32 -3 -22 -1 10 3 22 16 27 29 8 19 5 29 -10 44 -19 19 -21 19 -55 2
-19 -9 -37 -25 -41 -35 -3 -9 -18 -24 -34 -32 -15 -8 -38 -27 -51 -42 -12 -16
-19 -20 -16 -10 4 9 3 17 -2 17 -5 0 -12 -10 -16 -22 -3 -13 -9 -18 -11 -11
-8 19 11 46 65 88 27 22 50 45 51 52 0 7 8 17 18 22 16 10 15 10 -3 10 -11 0
-29 -4 -40 -8 -11 -5 -25 -5 -31 0 -7 5 -23 3 -41 -6 -16 -8 -45 -16 -63 -18
-19 -2 -44 -13 -56 -24 -47 -42 -53 -35 -27 30 30 74 43 93 53 76 5 -8 13 -8
25 -2 12 7 14 12 6 18 -9 5 -9 10 0 21 8 9 8 14 1 14 -6 0 -15 -8 -20 -17 -9
-15 -12 -15 -38 2 -23 15 -48 19 -115 20 -60 0 -85 3 -82 11 6 16 -73 27 -127
18 -25 -4 -41 -3 -37 2 3 5 -25 10 -61 10 -90 2 -235 14 -241 19 -2 3 3 5 12
5 10 0 17 4 17 9 0 5 -30 10 -67 10 -107 2 -148 5 -154 15 -4 4 -16 3 -28 -4
-20 -10 -45 2 -231 114 -115 69 -215 126 -223 126 -7 0 -23 7 -35 16 -20 14
-143 49 -146 42 -1 -2 0 -76 2 -165 3 -151 5 -163 24 -168 52 -17 139 -127
153 -193 12 -60 12 -102 0 -112 -7 -6 -10 -21 -7 -33 5 -21 4 -21 -17 3 l-21
25 10 -28 c13 -37 13 -44 -2 -29 -18 18 -27 15 -21 -8 7 -25 -5 -26 -24 -2
-14 16 -14 16 -8 -3 16 -44 17 -55 6 -55 -6 0 -11 4 -11 9 0 11 -62 72 -67 67
-2 -2 10 -18 26 -35 16 -17 29 -41 28 -52 -1 -19 -4 -19 -27 8 -30 34 -70 63
-85 63 -5 0 5 -9 23 -20 31 -19 66 -76 56 -92 -3 -4 -19 8 -36 28 -17 19 -44
42 -60 50 -25 13 -21 7 17 -30 43 -41 53 -65 29 -73 -5 -1 -16 10 -26 26 -17
31 -71 65 -91 58 -7 -2 5 -11 25 -20 36 -15 77 -71 59 -81 -5 -3 -27 12 -49
34 -22 22 -48 40 -58 40 -18 -1 -18 -1 1 -15 39 -29 65 -57 65 -71 0 -23 -16
-16 -53 21 -19 19 -43 35 -53 35 -15 0 -13 -4 9 -19 44 -29 60 -56 46 -80 -12
-18 -13 -17 -28 12 -17 33 -67 75 -77 65 -3 -4 8 -19 24 -35 36 -33 49 -68 28
-76 -9 -4 -18 5 -26 24 -13 30 -54 69 -73 69 -6 0 0 -12 14 -27 31 -36 49 -69
42 -77 -10 -10 -45 -7 -38 4 7 11 -61 88 -70 79 -3 -4 5 -19 18 -33 22 -23 41
-75 32 -84 -2 -2 -21 19 -42 47 -21 27 -44 50 -50 50 -18 1 -16 -5 7 -37 10
-15 22 -40 25 -57 5 -26 5 -27 -6 -11 -8 13 -13 15 -19 6 -5 -7 -10 1 -14 23
-6 33 -40 76 -52 65 -3 -4 1 -19 9 -35 8 -15 17 -41 21 -58 7 -29 7 -29 -13
-11 -12 11 -21 24 -21 29 0 6 -11 25 -26 44 -23 30 -23 37 -2 34 4 0 22 6 40
14 28 12 30 14 10 15 -13 0 -21 4 -18 9 3 5 -1 11 -9 15 -19 7 -19 45 0 52 8
4 15 10 15 16 0 5 -4 7 -8 4 -4 -2 -13 3 -19 13 -9 14 -7 21 8 32 25 18 24 33
-1 19 -14 -7 -20 -7 -20 0 0 5 5 10 10 10 6 0 10 7 10 15 0 9 6 12 15 9 18 -7
33 25 16 35 -8 5 -2 16 16 33 51 46 63 66 47 72 -8 3 -14 10 -14 15 0 15 29 6
43 -13 11 -16 14 -13 31 23 9 23 22 41 27 41 5 0 9 11 9 25 0 14 5 25 10 25
20 0 4 52 -20 65 l-24 13 32 16 c18 9 33 22 33 29 2 23 -3 42 -14 49 -10 6 28
47 46 48 4 0 7 12 7 26 0 26 -1 26 -25 10 -30 -20 -41 -21 -26 -2 9 11 9 20 2
35 -15 27 -16 27 29 23 30 -3 40 -1 40 10 0 9 12 28 26 43 18 20 22 30 14 35
-8 5 -9 13 -4 21 6 12 5 12 -9 0 -15 -12 -17 -11 -17 3 0 9 -5 16 -11 16 -5 0
-7 -6 -3 -12 4 -8 2 -8 -7 1 -11 10 -11 15 -1 18 14 6 16 49 2 58 -6 3 -13 0
-16 -9 -3 -8 -14 -14 -23 -13 -13 1 -17 8 -15 26 1 14 8 27 13 29 14 5 14 59
1 67 -5 3 -10 -3 -10 -14 0 -14 -6 -21 -19 -21 -22 0 -45 25 -37 39 4 5 -2 9
-11 9 -10 0 -27 3 -37 7 -14 6 -17 5 -12 -3z m-9 -143 c11 -16 1 -19 -13 -3
-7 8 -8 14 -3 14 5 0 13 -5 16 -11z m165 -70 c0 -5 -4 -9 -10 -9 -5 0 -10 7
-10 16 0 8 5 12 10 9 6 -3 10 -10 10 -16z m-1270 -198 c0 -5 -9 -7 -20 -4 -11
3 -20 7 -20 9 0 2 9 4 20 4 11 0 20 -4 20 -9z m1069 -56 c0 -5 -6 -1 -14 9 -8
11 -15 24 -15 30 0 5 7 1 15 -10 8 -10 14 -23 14 -29z m146 -25 c-3 -5 -11
-10 -16 -10 -6 0 -7 5 -4 10 3 6 11 10 16 10 6 0 7 -4 4 -10z m969 -69 c-2 -3
-12 3 -22 13 -16 17 -16 18 5 5 12 -7 20 -15 17 -18z m309 -8 c-7 -2 -19 -2
-25 0 -7 3 -2 5 12 5 14 0 19 -2 13 -5z m-2676 -17 c-14 -11 -15 -15 -5 -19 8
-3 6 -6 -6 -6 -12 -1 -16 -6 -12 -16 4 -11 -1 -15 -17 -15 -22 0 -22 0 2 -19
l25 -19 -26 5 c-15 3 -29 0 -33 -8 -5 -7 -4 -10 3 -5 6 3 13 2 17 -3 3 -5 -3
-14 -12 -20 -16 -9 -16 -10 5 -11 12 0 22 -4 22 -10 0 -5 -11 -10 -24 -10 -14
0 -28 -5 -32 -12 -5 -8 -2 -9 9 -5 9 3 27 2 39 -3 23 -9 23 -9 -3 -9 -24 -1
-76 -30 -53 -31 5 0 14 4 20 9 5 6 24 6 44 1 31 -7 32 -8 8 -9 -15 -1 -43 -15
-63 -32 l-35 -31 0 56 c0 31 9 79 20 109 21 57 82 127 109 127 14 -1 13 -3 -2
-14z m2424 -3 c13 -16 12 -17 -3 -4 -10 7 -18 15 -18 17 0 8 8 3 21 -13z
m-3181 -8 c0 -1 -24 -18 -53 -38 -47 -31 -55 -33 -64 -18 -9 13 -12 14 -27 2
-9 -7 -16 -9 -16 -4 0 13 101 59 133 59 15 1 27 0 27 -1z m807 -19 c-3 -8 1
-13 10 -12 9 0 17 -7 19 -17 2 -15 0 -16 -14 -5 -14 11 -15 10 -9 -5 4 -10 7
-23 7 -28 0 -6 4 -7 10 -4 5 3 17 2 26 -3 15 -8 15 -10 0 -15 -20 -8 -20 -16
0 -42 13 -17 16 -18 24 -5 9 13 11 13 20 0 5 -8 8 -20 6 -26 -2 -5 9 -19 25
-30 29 -19 37 -34 19 -34 -5 0 -10 5 -10 12 0 6 -3 8 -7 4 -5 -4 -8 -11 -8
-15 0 -4 -8 -15 -17 -25 -16 -16 -18 -15 -35 11 -10 15 -20 30 -23 33 -3 3
-16 19 -28 37 -27 38 -44 183 -22 183 6 0 10 -6 7 -14z m2473 -43 c0 -8 -57
27 -71 43 -8 10 4 5 29 -11 23 -15 42 -29 42 -32z m634 22 c-4 -8 -11 -15 -16
-15 -6 0 -5 6 2 15 7 8 14 15 16 15 2 0 1 -7 -2 -15z m-909 -47 c43 0 90 -23
121 -60 19 -23 19 -23 -8 0 -18 17 -33 22 -47 17 -17 -5 -21 -2 -21 15 0 18
-4 20 -34 14 -19 -3 -50 -1 -69 6 -29 9 -42 8 -72 -5 -32 -13 -39 -13 -49 -1
-6 7 -18 16 -26 19 -8 3 3 4 25 1 22 -3 51 -1 65 4 16 6 34 6 50 0 14 -5 43
-9 65 -10z m-898 6 c-3 -3 -12 -4 -19 -1 -8 3 -5 6 6 6 11 1 17 -2 13 -5z
m1778 -24 c-8 -16 -15 -36 -15 -45 0 -8 -5 -15 -11 -15 -7 0 -18 -8 -25 -17
-8 -11 -13 -13 -14 -5 0 7 9 20 20 29 11 10 20 21 20 25 0 18 21 58 30 58 6 0
4 -12 -5 -30z m-490 -18 c-3 -3 -11 0 -18 7 -9 10 -8 11 6 5 10 -3 15 -9 12
-12z m397 -66 c3 -16 1 -23 -7 -20 -6 3 -17 -5 -24 -18 -7 -14 -10 -16 -6 -4
3 10 0 25 -7 34 -11 13 -10 15 10 10 15 -4 22 -2 22 8 0 22 7 16 12 -10z m258
20 c0 -3 -4 -8 -10 -11 -5 -3 -10 -1 -10 4 0 6 5 11 10 11 6 0 10 -2 10 -4z
m135 -29 c-11 -7 -38 -20 -60 -30 -35 -15 -37 -15 -20 -1 22 17 74 43 90 44 5
0 1 -6 -10 -13z m-1121 -12 c-4 -8 -18 -15 -32 -15 -25 0 -25 1 -6 15 25 19
45 19 38 0z m916 11 c0 -2 -8 -10 -17 -17 -16 -13 -17 -12 -4 4 13 16 21 21
21 13z m60 -9 c0 -2 -10 -12 -21 -23 -22 -19 -22 -19 -10 4 10 18 31 31 31 19z
m-3310 -27 c0 -5 -4 -10 -10 -10 -5 0 -25 -14 -44 -30 -35 -31 -55 -29 -32 2
12 17 63 48 79 48 4 0 7 -4 7 -10z m2918 -21 c-3 -8 -7 -3 -11 10 -4 17 -3 21
5 13 5 -5 8 -16 6 -23z m572 11 c0 -5 -16 -17 -35 -26 -20 -9 -45 -29 -56 -45
-11 -16 -25 -29 -31 -29 -6 0 -3 9 7 20 22 24 9 27 -17 3 -14 -13 -18 -13 -18
-2 0 16 23 33 90 65 52 26 60 28 60 14z m-3265 -31 c-3 -4 -12 -6 -20 -3 -8 4
-13 10 -10 15 3 4 12 6 20 3 8 -4 13 -10 10 -15z m2886 -25 c-9 -25 -17 -38
-19 -30 -3 13 24 76 32 76 2 0 -4 -21 -13 -46z m-3111 19 c-14 -9 -37 -27 -52
-41 -22 -20 -28 -22 -28 -10 0 22 56 68 83 68 21 0 20 -1 -3 -17z m3021 -60
c-8 -15 -10 -10 -11 23 0 22 3 44 8 48 11 12 14 -52 3 -71z m-1811 63 c0 -2
-7 -7 -16 -10 -8 -3 -12 -2 -9 4 6 10 25 14 25 6z m1733 -34 c7 -9 6 -11 -7
-6 -9 3 -16 16 -15 28 0 14 2 16 6 6 3 -8 10 -21 16 -28z m-2699 -15 c-13 -7
-64 11 -64 23 0 16 13 16 44 1 23 -11 30 -18 20 -24z m-209 19 c-17 -7 -44
-29 -62 -49 -34 -39 -48 -39 -30 1 11 24 76 62 107 61 8 0 1 -6 -15 -13z m265
-38 c0 -17 -2 -18 -15 -8 -8 7 -15 9 -15 5 0 -5 -3 -6 -6 -2 -8 8 19 36 29 30
4 -2 7 -13 7 -25z m-287 -31 c-39 -37 -60 -32 -27 5 18 19 55 39 62 33 2 -2
-14 -19 -35 -38z m-1413 25 c0 -14 -11 -21 -26 -15 -8 3 -11 9 -8 14 7 11 34
12 34 1z m4560 -50 c0 -13 -4 -20 -10 -17 -5 3 -10 21 -10 38 0 24 3 28 10 17
5 -8 10 -25 10 -38z m-3081 26 c-2 -2 -23 -21 -47 -43 -23 -21 -42 -33 -42
-26 0 19 56 71 76 71 9 0 15 -1 13 -2z m1106 -18 c3 -5 -1 -10 -10 -10 -9 0
-13 5 -10 10 3 6 8 10 10 10 2 0 7 -4 10 -10z m-1121 -55 c-38 -47 -51 -52
-39 -15 5 17 58 60 73 60 2 0 -13 -20 -34 -45z m31 -31 c-14 -20 -25 -41 -25
-46 0 -5 -4 -6 -10 -3 -15 10 -12 21 16 54 36 43 49 39 19 -5z m3528 19 c-7
-2 -19 -2 -25 0 -7 3 -2 5 12 5 14 0 19 -2 13 -5z m-3469 -25 c-17 -12 -36
-35 -42 -52 -15 -38 -25 -29 -12 10 6 16 23 37 38 47 40 24 52 21 16 -5z
m3405 -2 c-2 -2 -38 -6 -79 -9 -46 -3 -63 -2 -45 3 30 8 132 13 124 6z m-3391
-56 c-19 -35 -38 -52 -38 -35 0 14 31 64 42 68 7 3 14 6 15 6 1 1 -8 -17 -19
-39z m1032 -42 c5 -16 5 -28 -1 -28 -5 0 -9 -10 -9 -22 0 -27 -5 -21 -14 15
-4 19 -3 26 3 22 13 -7 -20 57 -34 67 -6 5 -4 12 5 18 16 10 35 -16 50 -72z
m-990 32 c-12 -16 -19 -33 -16 -38 2 -4 1 -14 -5 -22 -6 -11 -8 -5 -5 18 2 18
11 41 21 52 27 30 29 24 5 -10z m920 -15 c9 -33 10 -52 2 -68 -9 -19 -10 -17
-10 17 1 22 -4 42 -10 44 -6 2 -8 10 -5 18 3 9 0 14 -7 12 -7 -2 -15 3 -17 10
-3 7 3 12 15 12 15 0 23 -11 32 -45z m-878 -22 c-13 -38 -17 -43 -20 -25 -3
20 21 72 33 72 2 0 -4 -21 -13 -47z m827 -23 c0 -8 -7 -1 -14 15 -8 17 -14 37
-14 45 0 8 7 2 14 -15 8 -16 14 -37 14 -45z m-1224 50 c3 -5 -3 -10 -14 -10
-11 0 -23 5 -26 10 -3 6 3 10 14 10 11 0 23 -4 26 -10z m455 -14 c0 -3 -4 -8
-10 -11 -5 -3 -10 -1 -10 4 0 6 5 11 10 11 6 0 10 -2 10 -4z m30 -53 c-11 -17
-11 -17 -6 0 3 10 6 24 7 30 0 9 2 9 5 0 3 -7 0 -20 -6 -30z m-45 17 c3 -5 1
-10 -4 -10 -6 0 -11 5 -11 10 0 6 2 10 4 10 3 0 8 -4 11 -10z m105 -40 c0 -5
-4 -10 -10 -10 -5 0 -10 5 -10 10 0 6 5 10 10 10 6 0 10 -4 10 -10z m3270 0
c18 -12 2 -12 -25 0 -13 6 -15 9 -5 9 8 0 22 -4 30 -9z m-3210 -14 c0 -3 -4
-8 -10 -11 -5 -3 -10 -1 -10 4 0 6 5 11 10 11 6 0 10 -2 10 -4z m3362 -144
c11 -13 10 -15 -5 -9 -10 4 -25 7 -33 7 -8 0 -14 6 -14 14 0 18 34 10 52 -12z
m-2102 -337 c0 -2 -13 -11 -30 -20 -16 -8 -37 -23 -47 -33 -18 -19 -214 -112
-234 -112 -7 0 -42 -11 -80 -25 -37 -13 -77 -22 -88 -20 -12 2 -21 0 -21 -5 0
-6 -10 -9 -22 -9 -13 1 -34 -2 -48 -6 -32 -8 -123 -18 -175 -19 -92 0 -210 8
-216 16 -3 5 -17 5 -30 0 -25 -9 -106 -8 -116 1 -20 20 24 25 199 21 144 -2
194 0 200 9 6 9 8 9 8 0 0 -7 5 -13 10 -13 6 0 10 7 10 15 0 9 9 15 23 15 18
0 19 -2 7 -10 -12 -8 -11 -10 8 -10 14 0 22 6 22 16 0 13 7 15 30 11 18 -4 30
-2 30 4 0 6 9 8 20 4 29 -9 126 22 150 47 11 12 20 16 20 10 0 -7 9 -12 21
-12 14 0 19 5 16 14 -7 19 24 31 35 14 7 -9 11 -10 14 -2 3 6 15 9 28 7 18 -4
25 1 30 19 5 19 8 20 16 8 8 -12 13 -13 30 -2 11 6 26 12 34 12 7 0 19 7 26
15 7 8 22 15 34 15 11 1 32 7 46 15 26 15 40 18 40 10z m-410 -129 c0 -2 -7
-6 -15 -10 -8 -3 -15 -1 -15 4 0 6 7 10 15 10 8 0 15 -2 15 -4z m320 -31 c0
-5 -5 -3 -10 5 -5 8 -10 20 -10 25 0 6 5 3 10 -5 5 -8 10 -19 10 -25z m-21
-20 c0 -5 -4 -3 -9 5 -5 8 -9 22 -9 30 0 16 17 -16 18 -35z m94 25 c3 -11 1
-18 -4 -14 -5 3 -9 -3 -9 -12 0 -15 -2 -16 -12 -5 -10 11 -10 14 0 18 6 3 12
11 12 19 0 20 7 17 13 -6z m-1178 -20 c-8 -12 34 -30 54 -22 9 3 12 -1 9 -14
-4 -21 -2 -21 -76 -10 -32 5 -51 13 -49 20 2 6 12 10 21 8 9 -2 19 4 22 13 3
8 10 15 16 15 5 0 6 -5 3 -10z m1145 -28 c0 -7 -4 -10 -10 -7 -5 3 -10 1 -10
-5 0 -6 -4 -8 -10 -5 -5 3 -10 13 -10 21 0 8 5 12 10 9 6 -3 10 2 10 12 0 15
2 16 10 3 5 -8 10 -21 10 -28z m-670 14 c0 -3 -4 -8 -10 -11 -5 -3 -10 -1 -10
4 0 6 5 11 10 11 6 0 10 -2 10 -4z m2869 -55 c-3 -6 -10 -7 -18 -2 -7 5 -10
14 -6 21 9 14 29 -2 24 -19z m-12 -103 c-3 -8 -6 -5 -6 6 -1 11 2 17 5 13 3
-3 4 -12 1 -19z m60 -60 c27 -92 37 -146 24 -133 -13 13 -61 205 -52 205 4 0
17 -33 28 -72z m-3547 -173 c-7 -9 -15 -13 -19 -10 -3 3 1 10 9 15 21 14 24
12 10 -5z m1236 -282 c-10 -10 -19 5 -10 18 6 11 8 11 12 0 2 -7 1 -15 -2 -18z
m2489 -112 c-3 -6 -11 -8 -17 -5 -6 4 -5 9 3 15 16 10 23 4 14 -10z m-2325
-151 c0 -5 -5 -10 -11 -10 -5 0 -7 5 -4 10 3 6 8 10 11 10 2 0 4 -4 4 -10z
m1705 -150 c3 -5 -1 -10 -10 -10 -9 0 -13 5 -10 10 3 6 8 10 10 10 2 0 7 -4
10 -10z m-129 -112 l29 -33 -32 29 c-31 28 -38 36 -30 36 2 0 16 -15 33 -32z
m15 -205 c14 -16 45 -54 69 -86 26 -35 46 -54 50 -47 4 7 12 3 22 -12 19 -29
29 -68 17 -68 -5 0 -12 12 -15 26 -4 16 -11 23 -20 20 -23 -9 -90 69 -158 182
-13 22 10 12 35 -15z m109 -98 c7 -9 8 -15 2 -15 -5 0 -12 7 -16 15 -3 8 -4
15 -2 15 2 0 9 -7 16 -15z m-1886 -1650 c-4 -8 -10 -12 -15 -9 -11 6 -2 24 11
24 5 0 7 -7 4 -15z m1856 -69 c0 -2 -7 -7 -16 -10 -8 -3 -12 -2 -9 4 6 10 25
14 25 6z m-1835 -116 c3 -5 1 -10 -4 -10 -6 0 -11 5 -11 10 0 6 2 10 4 10 3 0
8 -4 11 -10z m-15 -61 c0 -5 -5 -9 -11 -9 -6 0 -9 -6 -6 -14 3 -8 -2 -16 -14
-19 -10 -3 -19 -1 -19 4 0 5 5 9 10 9 6 0 10 5 10 10 0 6 -7 10 -15 10 -18 0
-20 17 -2 23 17 5 47 -3 47 -14z m-44 -305 c-23 -16 -50 -19 -41 -4 3 6 15 10
26 10 10 0 19 5 19 12 0 6 3 8 7 4 5 -4 -1 -14 -11 -22z m51 -116 c-3 -8 -6
-5 -6 6 -1 11 2 17 5 13 3 -3 4 -12 1 -19z m2723 -188 c0 -5 -7 -10 -16 -10
-8 0 -12 5 -9 10 3 6 10 10 16 10 5 0 9 -4 9 -10z m7 -26 c-3 -3 -12 -4 -19
-1 -8 3 -5 6 6 6 11 1 17 -2 13 -5z m-2793 -189 c-6 -16 -24 -21 -24 -7 0 11
11 22 21 22 5 0 6 -7 3 -15z"/>
<path d="M2195 5600 c3 -5 8 -10 11 -10 2 0 4 5 4 10 0 6 -5 10 -11 10 -5 0
-7 -4 -4 -10z"/>
<path d="M4560 6138 c0 -26 13 -58 20 -53 5 3 11 1 15 -5 3 -5 11 -10 18 -10
8 0 8 3 -1 12 -16 16 -15 28 2 28 7 0 20 8 27 17 8 10 9 14 2 10 -6 -4 -14 -3
-18 3 -10 16 -23 12 -21 -6 0 -9 -5 -19 -11 -21 -8 -3 -13 4 -13 16 0 12 -4
21 -10 21 -5 0 -10 -6 -10 -12z"/>
<path d="M3568 5998 c-21 -21 -24 -39 -5 -33 18 7 35 -7 38 -34 5 -32 58 -63
78 -47 11 8 15 8 18 -1 4 -10 7 -10 18 0 33 29 43 36 47 31 3 -2 5 10 6 27 0
18 6 35 13 39 8 6 5 11 -10 19 -12 7 -25 9 -30 6 -5 -3 -19 -1 -32 3 -17 7
-27 4 -42 -11 l-20 -20 -8 21 c-10 25 -46 25 -71 0z"/>
<path d="M3460 5910 c-8 -5 -12 -12 -9 -15 8 -8 39 5 39 16 0 11 -11 11 -30
-1z"/>
<path d="M2750 5780 c-8 -5 -10 -10 -5 -10 6 0 17 5 25 10 8 5 11 10 5 10 -5
0 -17 -5 -25 -10z"/>
<path d="M4476 5714 c-11 -7 -16 -17 -13 -21 4 -4 15 1 24 10 22 21 14 30 -11
11z"/>
<path d="M4727 5636 c-4 -10 -7 -47 -7 -82 0 -46 -6 -77 -21 -105 l-20 -40 21
11 c30 16 71 84 70 116 -2 56 -4 72 -11 68 -4 -2 -11 8 -16 23 -8 23 -10 24
-16 9z"/>
<path d="M6310 5584 c-14 -7 -33 -14 -43 -14 -9 0 -26 -14 -37 -32 -22 -36
-19 -49 7 -26 10 9 26 18 37 19 10 2 30 19 44 37 13 17 23 32 21 31 -2 -1 -15
-7 -29 -15z"/>
<path d="M6638 5393 c7 -3 16 -2 19 1 4 3 -2 6 -13 5 -11 0 -14 -3 -6 -6z"/>
<path d="M6640 5366 c0 -2 7 -7 16 -10 8 -3 12 -2 9 4 -6 10 -25 14 -25 6z"/>
<path d="M6616 5332 c-3 -5 18 -9 47 -9 43 -1 47 0 22 7 -42 11 -63 11 -69 2z"/>
<path d="M6735 5260 c3 -5 8 -10 11 -10 2 0 4 5 4 10 0 6 -5 10 -11 10 -5 0
-7 -4 -4 -10z"/>
<path d="M4540 4281 c0 -6 4 -13 10 -16 6 -3 7 1 4 9 -7 18 -14 21 -14 7z"/>
<path d="M4517 4261 c-3 -13 -1 -18 9 -14 7 2 10 11 7 19 -7 19 -10 18 -16 -5z"/>
<path d="M4200 4190 c0 -5 5 -10 10 -10 6 0 10 5 10 10 0 6 -4 10 -10 10 -5 0
-10 -4 -10 -10z"/>
<path d="M3468 3943 c6 -2 18 -2 25 0 6 3 1 5 -13 5 -14 0 -19 -2 -12 -5z"/>
<path d="M3466 3921 c-19 -7 -19 -8 2 -13 15 -4 22 -2 22 8 0 8 -1 14 -2 13
-2 0 -12 -4 -22 -8z"/>
<path d="M4549 3873 c-13 -16 -12 -17 4 -4 9 7 17 15 17 17 0 8 -8 3 -21 -13z"/>
<path d="M4212 3680 c0 -14 2 -19 5 -12 2 6 2 18 0 25 -3 6 -5 1 -5 -13z"/>
<path d="M4580 3631 c0 -5 6 -12 13 -14 10 -4 10 -6 0 -6 -7 -1 -13 -5 -13
-10 0 -14 42 -21 59 -10 13 8 12 9 -5 4 -17 -4 -23 0 -28 20 -6 23 -26 36 -26
16z"/>
<path d="M4160 3553 c0 -4 5 -15 10 -23 8 -13 10 -13 10 2 0 9 -4 20 -10 23
-5 3 -10 3 -10 -2z"/>
<path d="M4198 3543 c6 -2 18 -2 25 0 6 3 1 5 -13 5 -14 0 -19 -2 -12 -5z"/>
<path d="M4190 3520 c0 -5 5 -10 11 -10 5 0 7 5 4 10 -3 6 -8 10 -11 10 -2 0
-4 -4 -4 -10z"/>
<path d="M4675 3451 c-3 -5 -1 -12 4 -15 5 -3 11 1 15 9 6 16 -9 21 -19 6z"/>
<path d="M4635 3360 c4 -6 11 -8 16 -5 14 9 11 15 -7 15 -8 0 -12 -5 -9 -10z"/>
<path d="M4640 1839 c0 -5 5 -7 10 -4 6 3 10 8 10 11 0 2 -4 4 -10 4 -5 0 -10
-5 -10 -11z"/>
<path d="M4628 1673 c7 -3 16 -2 19 1 4 3 -2 6 -13 5 -11 0 -14 -3 -6 -6z"/>
<path d="M4610 1486 c0 -14 4 -27 8 -30 5 -3 6 8 4 25 -5 35 -12 38 -12 5z"/>
<path d="M4590 1398 c0 -4 4 -8 9 -8 6 0 12 4 15 8 3 5 -1 9 -9 9 -8 0 -15 -4
-15 -9z"/>
<path d="M4590 1248 c0 -9 -6 -19 -12 -21 -10 -4 -10 -6 0 -6 14 -1 28 26 18
36 -3 4 -6 -1 -6 -9z"/>
<path d="M4570 1189 c0 -5 5 -7 10 -4 6 3 10 8 10 11 0 2 -4 4 -10 4 -5 0 -10
-5 -10 -11z"/>
<path d="M4550 1122 c0 -7 4 -12 10 -12 5 0 7 -7 3 -15 -3 -9 -11 -14 -17 -12
-6 2 -16 -3 -23 -12 -20 -26 -15 -36 8 -15 12 10 24 17 26 14 3 -3 11 3 17 12
8 14 7 22 -7 35 -10 11 -17 13 -17 5z"/>
<path d="M4511 1094 c0 -11 3 -14 6 -6 3 7 2 16 -1 19 -3 4 -6 -2 -5 -13z"/>
<path d="M4490 969 c0 -5 5 -7 10 -4 6 3 10 8 10 11 0 2 -4 4 -10 4 -5 0 -10
-5 -10 -11z"/>
<path d="M4464 905 c-17 -13 -17 -14 -2 -15 9 0 20 5 23 11 11 17 0 20 -21 4z"/>
<path d="M4370 886 c0 -2 9 -6 20 -9 11 -3 20 -1 20 4 0 5 -9 9 -20 9 -11 0
-20 -2 -20 -4z"/>
<path d="M4500 805 c0 -8 5 -15 10 -15 6 0 10 7 10 15 0 8 -4 15 -10 15 -5 0
-10 -7 -10 -15z"/>
<path d="M4445 760 c3 -5 8 -10 11 -10 2 0 4 5 4 10 0 6 -5 10 -11 10 -5 0 -7
-4 -4 -10z"/>
<path d="M4410 750 c0 -5 5 -10 10 -10 6 0 10 5 10 10 0 6 -4 10 -10 10 -5 0
-10 -4 -10 -10z"/>
<path d="M4460 695 c0 -16 16 -20 24 -6 3 5 -1 11 -9 15 -9 3 -15 0 -15 -9z"/>
<path d="M4430 644 c0 -8 5 -12 10 -9 6 3 10 10 10 16 0 5 -4 9 -10 9 -5 0
-10 -7 -10 -16z"/>
<path d="M4483 630 c5 -31 17 -37 15 -7 -1 15 -6 27 -10 27 -4 0 -7 -9 -5 -20z"/>
<path d="M4405 620 c3 -5 8 -10 11 -10 2 0 4 5 4 10 0 6 -5 10 -11 10 -5 0 -7
-4 -4 -10z"/>
<path d="M4453 545 c-3 -9 -3 -18 -1 -21 3 -3 8 4 11 16 6 23 -1 27 -10 5z"/>
<path d="M4492 548 c7 -19 59 -33 68 -17 5 7 6 17 3 22 -3 5 -9 4 -13 -2 -5
-9 -14 -9 -34 -1 -21 8 -27 7 -24 -2z"/>
<path d="M4442 490 c-11 -18 -10 -20 10 -17 16 1 23 -3 23 -15 0 -9 4 -20 8
-25 5 -4 7 -1 5 7 -2 11 5 15 27 14 29 -2 45 10 45 31 0 7 -3 7 -8 0 -7 -10
-71 -15 -70 -5 2 35 -20 41 -40 10z"/>
<path d="M4562 434 c2 -15 8 -29 14 -31 7 -2 10 6 6 22 -6 35 -24 44 -20 9z"/>
<path d="M4441 360 c0 -29 1 -32 10 -17 7 11 7 23 0 35 -9 14 -10 11 -10 -18z"/>
<path d="M4305 339 c-4 -6 -5 -12 -2 -15 2 -3 7 2 10 11 7 17 1 20 -8 4z"/>
<path d="M4490 310 c0 -5 5 -10 10 -10 6 0 10 5 10 10 0 6 -4 10 -10 10 -5 0
-10 -4 -10 -10z"/>
<path d="M4425 301 c-3 -5 -2 -12 3 -15 5 -3 9 1 9 9 0 17 -3 19 -12 6z"/>
<path d="M4470 280 c17 -34 17 -34 23 -9 3 11 3 18 0 15 -4 -3 -13 0 -21 7
-13 11 -14 9 -2 -13z"/>
<path d="M4431 254 c0 -11 3 -14 6 -6 3 7 2 16 -1 19 -3 4 -6 -2 -5 -13z"/>
<path d="M4453 256 c4 -10 7 -26 7 -37 0 -10 4 -19 8 -19 12 0 2 59 -11 67 -7
4 -8 0 -4 -11z"/>
<path d="M4406 235 c-3 -9 -6 -24 -5 -33 0 -9 5 -4 10 12 9 32 6 48 -5 21z"/>
<path d="M4419 182 c-14 -17 -14 -21 -1 -38 9 -12 12 -13 10 -4 -3 8 -1 25 3
38 10 27 8 27 -12 4z"/>
<path d="M4445 150 c2 -19 4 -37 5 -40 0 -3 5 3 11 14 7 12 8 21 2 25 -6 3
-13 13 -16 21 -3 8 -4 -1 -2 -20z"/>
<path d="M4486 148 c8 -28 12 -33 20 -25 9 8 -6 47 -17 47 -6 0 -7 -10 -3 -22z"/>
<path d="M4412 100 c0 -14 2 -19 5 -12 2 6 2 18 0 25 -3 6 -5 1 -5 -13z"/>
<path d="M4426 55 c-3 -8 -1 -15 3 -15 5 0 11 7 15 15 3 8 1 15 -3 15 -5 0
-11 -7 -15 -15z"/>
<path d="M4500 23 c0 -13 5 -23 10 -23 13 0 13 11 0 30 -8 12 -10 11 -10 -7z"/>
<path d="M4375 20 c-3 -5 -1 -10 4 -10 6 0 11 5 11 10 0 6 -2 10 -4 10 -3 0
-8 -4 -11 -10z"/>
<path d="M4446 21 c-19 -7 -19 -8 0 -13 13 -3 21 0 21 8 0 8 -1 14 -1 13 -1 0
-10 -4 -20 -8z"/>
</g>
</svg>
