<svg xmlns="http://www.w3.org/2000/svg" width="500" height="499" viewBox="0 0 500 499" version="1.1"><path d="M 227 0.640 C 205.573 3.795, 202.768 4.370, 204.920 5.166 C 206.169 5.628, 230.507 21.080, 259.005 39.503 C 288.300 58.442, 311.805 73, 313.088 73 C 314.337 73, 316.815 73.527, 318.596 74.171 C 321.751 75.312, 321.974 75.201, 327.259 69.874 C 335.047 62.023, 345.591 58.996, 353.460 62.353 C 356.353 63.587, 356.301 63.615, 351.206 63.615 C 335.502 63.615, 330.062 84.741, 343.962 91.750 C 353.848 96.735, 366 90.214, 366 79.923 C 366 73.977, 385.825 80.018, 395.257 88.839 C 402.583 95.689, 404.816 99.740, 402.255 101.534 C 397.192 105.080, 395.504 115.034, 398.995 120.759 C 406.166 132.521, 424.106 129.413, 426.992 115.909 C 427.849 111.900, 427.905 112.152, 427.606 118.675 C 427.352 124.229, 426.681 126.868, 424.639 130.353 C 421.465 135.770, 421.413 136.822, 424.042 142.592 C 426.272 147.488, 424.285 146.077, 470.989 175.930 C 482.889 183.537, 492 190.005, 492 190.847 C 492 191.664, 492.269 192.064, 492.599 191.735 C 496.350 187.983, 474.457 136.075, 459.600 113.500 C 409.389 37.200, 309.123 -11.450, 227 0.640 M 104.415 69.421 C 101.021 70.899, 97.251 75.152, 96.428 78.432 C 96.109 79.701, 93.731 81.674, 90.449 83.392 C 76.139 90.885, 65.500 108.285, 65.500 124.198 C 65.500 129.589, 65.211 134, 64.859 134 C 64.506 134, 63.493 135.809, 62.609 138.020 C 55.987 154.569, 77.874 167.221, 88.153 152.785 C 94.701 143.589, 87.578 129, 76.540 129 C 68.288 129, 81.924 100.155, 93.580 92.950 L 97.134 90.754 99.817 93.255 C 105.139 98.215, 111.341 99.435, 116.800 96.595 C 134.035 87.627, 122.207 61.675, 104.415 69.421 M 348 69.669 C 337.421 73.798, 340.407 88.612, 351.754 88.290 C 359.592 88.068, 363.535 78.079, 357.977 72.524 C 355.440 69.989, 350.675 68.625, 348 69.669 M 105.345 74.931 C 96.740 80.178, 101.971 94.055, 112 92.582 C 121.058 91.251, 123.153 78.716, 115.020 74.510 C 111.174 72.522, 109.152 72.610, 105.345 74.931 M 138.990 80.250 C 126.183 88.966, 131.195 108, 146.298 108 C 149.679 108, 150.630 108.972, 169.552 131.750 C 191.841 158.583, 190.068 157.207, 195.813 152.140 L 200.127 148.336 180.103 124.273 C 160.384 100.574, 160.094 100.159, 161.026 96.910 C 164.546 84.635, 149.386 73.174, 138.990 80.250 M 313.241 82.995 C 308.807 85.698, 306.008 90.601, 306.004 95.674 C 306 99.688, 298.416 106.973, 283.640 117.155 C 282.829 117.714, 289.413 128, 290.582 128 C 290.808 128, 296.039 124.063, 302.207 119.250 L 313.420 110.500 319.960 110.500 C 327.658 110.500, 331.712 108.235, 334.490 102.380 C 340.598 89.508, 325.360 75.605, 313.241 82.995 M 139.452 86.646 C 133.857 92.683, 138.304 103, 146.500 103 C 155.557 103, 159.378 90.880, 152.087 85.282 C 149.074 82.969, 142.169 83.714, 139.452 86.646 M 318.374 86.689 C 311.338 88.070, 309.046 97.246, 314.400 102.600 C 322.508 110.708, 334.398 101.085, 328.920 90.850 C 328.041 89.208, 321.849 85.621, 320.782 86.136 C 320.627 86.211, 319.543 86.460, 318.374 86.689 M 369.880 87.738 C 368.989 87.935, 367.442 89.987, 366.442 92.298 C 365.443 94.609, 364 97.248, 363.237 98.162 C 362.473 99.077, 361.758 100.427, 361.646 101.162 C 361.535 101.898, 361.119 103.020, 360.722 103.655 C 360.270 104.377, 361.781 105.852, 364.750 107.588 C 367.362 109.117, 372.369 112.328, 375.875 114.726 C 383.057 119.636, 382.841 119.655, 384.114 113.988 C 384.629 111.695, 386.164 108.181, 387.525 106.178 C 392.756 98.479, 380.277 85.438, 369.880 87.738 M 406.301 105.772 C 401.243 109.747, 401.192 116.301, 406.186 120.503 C 415.682 128.494, 427.299 115.208, 418.505 106.414 C 415.583 103.492, 409.603 103.177, 406.301 105.772 M 259.017 121.851 C 254.499 124.274, 252.170 127.519, 250.637 133.530 L 249.386 138.433 198.720 174.466 C 163.919 199.217, 148.157 210.987, 148.383 212.056 C 149.069 215.303, 173.075 246.059, 174.311 245.273 C 184.835 238.584, 184.814 240.449, 174.518 226.770 C 169.853 220.571, 166.028 215.255, 166.018 214.954 C 166 214.398, 171.984 210.084, 226.500 171.355 L 257.500 149.331 264 149.753 C 271.582 150.245, 275.909 148.040, 279.209 142 C 285.863 129.822, 271.283 115.273, 259.017 121.851 M 258.923 128.923 C 254.889 132.957, 254.889 138.043, 258.923 142.077 C 262.954 146.108, 268.517 146.157, 272.313 142.195 C 281.010 133.118, 267.811 120.035, 258.923 128.923 M 395.898 133.270 C 391.654 136.105, 389.004 141.247, 389.002 146.647 L 389 150.794 364 171.540 C 350.250 182.950, 339 192.590, 339 192.963 C 339 193.942, 346.021 202, 346.874 202 C 347.269 202, 358.941 192.594, 372.812 181.097 C 397.583 160.566, 398.100 160.204, 401.899 160.713 C 418.068 162.882, 425.681 141.483, 411.759 132.995 C 407.226 130.231, 400.267 130.351, 395.898 133.270 M 69.789 136.898 C 61.602 144.212, 69.935 157.169, 80.113 152.953 C 87.346 149.957, 87.809 139.021, 80.855 135.425 C 76.671 133.261, 73.366 133.701, 69.789 136.898 M 399.763 137.525 C 396.382 139.409, 393.648 144.463, 394.397 147.445 C 396.782 156.950, 409.438 158.599, 413.052 149.875 C 416.398 141.797, 407.288 133.331, 399.763 137.525 M 270.389 167.474 C 250.861 182.039, 251.923 180.624, 256.183 186.413 C 260.330 192.050, 258.723 192.449, 272.024 182.482 C 285.857 172.117, 279.859 167.497, 313.315 214.289 L 341.764 254.077 341.318 260.289 C 340.394 273.177, 351.003 280.566, 362.465 275.017 C 375.866 268.530, 372.314 248.917, 357.434 247.240 L 353.018 246.742 320.885 201.621 C 303.212 176.804, 288.420 156.135, 288.015 155.689 C 287.609 155.242, 279.677 160.546, 270.389 167.474 M 87.898 164.270 C 75.980 172.231, 81.198 190.604, 95.579 191.318 C 98.969 191.487, 99.827 192.257, 107.186 201.750 C 115.901 212.993, 115.282 212.766, 121.922 207.160 L 125.344 204.270 117.693 194.583 L 110.042 184.895 110.644 179.135 C 112.046 165.714, 98.747 157.022, 87.898 164.270 M 90.277 168.772 C 84.441 173.307, 85.671 182.711, 92.472 185.553 C 102.314 189.665, 110.603 177.449, 103.077 169.923 C 99.641 166.487, 93.883 165.970, 90.277 168.772 M 237.019 194.480 L 234.690 196.959 238.487 202.679 L 242.285 208.399 238.930 211.199 C 234.595 214.818, 235.192 215.082, 229.461 207.021 C 224.547 200.107, 222.669 198.468, 220.910 199.556 C 219.160 200.637, 220.038 202.793, 225 209.599 C 230.945 217.753, 230.852 217.113, 226.567 220.381 C 222.221 223.696, 223.094 224.114, 217.542 216.060 C 212.636 208.946, 210.426 207.174, 208.660 208.940 C 207.397 210.203, 208.561 212.607, 214.181 220.336 L 218.424 226.171 215.962 228.114 C 210.639 232.315, 210.537 232.297, 206.517 226.461 C 204.449 223.457, 202.197 221, 201.513 221 C 199.605 221, 195 224.963, 195 226.604 C 195 228.606, 197.714 229.482, 199.451 228.040 C 200.612 227.077, 201.391 227.634, 203.646 231.041 C 206.049 234.672, 206.216 235.374, 204.911 236.362 C 200.042 240.049, 198.587 247.366, 201.574 253.143 C 202.439 254.816, 203.002 256.292, 202.824 256.421 C 202.646 256.551, 200.873 257.866, 198.885 259.344 C 195.710 261.704, 195.118 261.847, 194.013 260.515 C 192.134 258.252, 190 258.675, 190 261.311 C 190 267.642, 194.203 268.927, 200.429 264.500 C 206.445 260.223, 206.171 260.224, 209.402 264.461 L 212.042 267.921 204.521 273.582 C 200.384 276.695, 197 279.877, 197 280.653 C 197 283.848, 200.243 283.009, 206.861 278.103 C 214.926 272.124, 214.970 272.116, 217.812 275.960 C 220.918 280.161, 220.774 280.467, 213 286.138 C 209.150 288.947, 206 291.880, 206 292.654 C 206 295.872, 209.281 295.041, 216.036 290.112 C 224.391 284.016, 224.015 284.065, 227.283 288.658 L 229.885 292.315 224.443 296.213 C 218.418 300.527, 218.051 301.524, 221.073 305.365 C 224.269 309.429, 228.340 308.372, 226.041 304.076 C 225.154 302.419, 225.514 301.709, 228.339 299.555 C 231.843 296.882, 234 296.295, 234 298.015 C 234 301.881, 245.627 304.279, 250.973 301.514 C 254.738 299.567, 261.529 306.319, 258 308.500 C 256.545 309.399, 256.775 312.700, 258.334 313.298 C 259.068 313.580, 261.092 312.696, 262.832 311.335 C 266.390 308.550, 266.234 307.720, 260.855 300.856 C 257.305 296.326, 257.236 296.771, 261.977 293.634 L 265.954 291.002 271.598 298.501 C 277.540 306.396, 277.914 306.686, 279.753 304.847 C 281.192 303.408, 280.292 301.586, 274.241 293.689 C 271.792 290.493, 269.949 287.775, 270.144 287.648 C 270.340 287.522, 272.165 286.194, 274.201 284.696 L 277.902 281.973 283.458 289.487 C 288.726 296.611, 291.081 298.296, 292.517 295.973 C 293.182 294.897, 291.763 292.350, 286.099 284.447 C 282.364 279.235, 282.529 278.026, 287.359 275.183 C 290.176 273.525, 290.250 273.543, 292.359 276.411 C 298.714 285.051, 301.615 285.801, 305.379 279.778 C 306.979 277.216, 304.656 275.109, 302.036 276.746 C 300.368 277.787, 299.739 277.458, 297.157 274.199 L 294.194 270.457 297.597 266.743 C 301.412 262.580, 302.290 256.088, 299.532 252.441 C 297.375 249.590, 297.641 248.754, 301.549 246.092 C 304.227 244.268, 305.365 243.965, 306.242 244.842 C 306.879 245.479, 308.210 246, 309.200 246 C 311.855 246, 311.488 241.807, 308.594 239.089 C 305.876 236.535, 305.069 236.766, 298.545 241.959 L 294.590 245.108 292.766 242.804 C 288.483 237.392, 288.453 237.483, 296.490 231.540 C 304.330 225.742, 304.766 225.166, 302.800 223.200 C 301.070 221.470, 301.045 221.481, 293.138 227.397 C 288.277 231.033, 285.289 232.627, 283.975 232.283 C 279.513 231.116, 280.842 235.024, 288.463 245.481 C 300.098 261.447, 303.069 257.124, 257.352 290.745 C 241.331 302.527, 244.907 304.905, 213.848 261.827 C 200.467 243.268, 198.258 247.172, 238.672 217.965 C 258.453 203.669, 258.502 203.672, 269.704 219.742 C 277.349 230.708, 272.359 231.957, 264.375 221.075 C 257.176 211.261, 210.926 233.676, 211.018 246.934 C 211.048 251.210, 241.516 292, 244.680 292 C 248.367 292, 290.001 261.259, 289.996 258.541 C 289.989 255.303, 277.673 238, 275.375 238 C 272.590 238, 272.730 241.081, 275.685 244.801 C 281.447 252.056, 285.237 258.236, 284.310 258.863 C 282.712 259.943, 268.063 270.534, 256.500 278.969 C 243.240 288.642, 246.783 290.222, 230.040 267.170 C 213.401 244.261, 214.139 248.416, 225.250 240.186 C 242.024 227.760, 253.482 219.386, 254.712 218.652 C 255.497 218.184, 258.112 220.931, 262.147 226.465 C 265.570 231.159, 268.737 235, 269.183 235 C 271.019 235, 280.004 227.688, 280.051 226.156 C 280.079 225.245, 283.454 222.110, 287.551 219.188 C 295.441 213.563, 295.872 212.969, 293.500 211 C 292.254 209.966, 290.807 210.625, 284.978 214.877 C 276.642 220.960, 276.936 220.917, 273.602 216.544 L 270.966 213.088 276.483 209.013 C 282.647 204.459, 283.027 203.306, 279.658 199.388 C 276.553 195.779, 273.545 196.651, 274.476 200.891 C 275.010 203.322, 274.638 204.121, 272.151 205.892 C 268.391 208.570, 268.416 208.573, 264.347 205 C 260.380 201.517, 254.865 200.984, 249.814 203.596 C 245.747 205.699, 239.180 198.861, 243 196.500 C 243.550 196.160, 244 195.009, 244 193.941 C 244 191.118, 239.878 191.436, 237.019 194.480 M 133.604 223.007 C 117.934 227.865, 121.369 252, 137.731 252 C 140.277 252, 143.565 256.254, 174.472 299.527 C 193.142 325.667, 208.915 346.863, 209.524 346.629 C 210.133 346.395, 218.094 340.686, 227.215 333.941 L 243.798 321.678 240.186 316.839 C 235.715 310.851, 237.380 310.474, 224 320.500 C 210.381 330.705, 212.936 330.938, 204.306 318.701 C 200.349 313.090, 186.816 294.066, 174.231 276.425 C 156.268 251.244, 151.513 243.937, 152.105 242.425 C 156.348 231.595, 144.846 219.522, 133.604 223.007 M 132.299 229.503 C 127.241 233.046, 127.578 243.098, 132.850 245.920 C 139.431 249.442, 148 244.679, 148 237.500 C 148 230.026, 138.477 225.176, 132.299 229.503 M 352.388 252.942 C 346.796 255.302, 344.605 261.830, 347.665 267.010 C 352.677 275.494, 365.455 271.969, 365.455 262.102 C 365.455 255.357, 358.395 250.408, 352.388 252.942 M 319 263.639 C 316.525 265.584, 314.560 267.398, 314.634 267.671 C 314.772 268.178, 323.414 280.257, 328.900 287.609 L 331.966 291.718 319.233 300.681 C 298.142 315.528, 256.857 345.040, 251.216 349.303 C 246.087 353.179, 245.815 353.261, 241.955 352.105 C 225.071 347.046, 214.399 371.041, 229.994 378.997 C 239.668 383.932, 251.983 377.645, 251.996 367.763 C 252.001 364.607, 248.439 367.328, 308 324.972 C 329.725 309.522, 348.070 296.322, 348.767 295.638 C 349.901 294.525, 325.881 260.050, 324 260.092 C 323.725 260.098, 321.475 261.694, 319 263.639 M 375.677 294.278 L 370.854 298.500 379.326 309.259 L 387.799 320.019 386.464 324.453 C 383.182 335.360, 391.874 345.380, 402.991 343.501 C 419.064 340.786, 418.991 316.941, 402.901 314.368 C 399.515 313.827, 398.204 312.614, 390.802 303.176 C 386.236 297.354, 382.050 292.020, 381.500 291.323 C 380.733 290.352, 379.376 291.040, 375.677 294.278 M 126.127 324.263 L 101.753 344.500 95.452 344.500 C 79.446 344.500, 73.472 361.797, 86.198 371.298 C 95.234 378.045, 108.912 370.748, 109.057 359.102 L 109.114 354.500 133.942 334.012 L 158.770 313.524 155.135 308.804 C 153.136 306.209, 151.275 304.072, 151 304.056 C 150.725 304.039, 139.532 313.133, 126.127 324.263 M 395.775 320.559 C 387.453 325.075, 390.124 337.402, 399.703 338.687 C 403.427 339.186, 404.250 338.904, 406.952 336.202 C 415.196 327.958, 405.961 315.031, 395.775 320.559 M 417.275 344.054 C 402.759 347.129, 401.413 369.387, 415.554 372.515 C 421.469 373.824, 421.301 373.555, 420.777 380.869 C 420.028 391.339, 413.272 402.277, 403.328 409.118 L 398.835 412.210 397.357 410.099 C 389.721 399.197, 371.500 405.703, 371.500 419.331 C 371.500 435.487, 392.469 440.356, 399.029 425.723 C 400.465 422.520, 401.959 421.022, 405.211 419.519 C 419.013 413.146, 430.355 394.981, 430.726 378.660 C 430.905 370.756, 431.316 368.308, 432.726 366.751 C 440.679 357.963, 429.454 341.474, 417.275 344.054 M 301.250 349.927 C 298.913 352.042, 297 354.072, 297 354.439 C 297 355.062, 326.377 390.939, 333.682 399.237 C 336.791 402.769, 336.942 403.292, 336.423 408.737 C 334.851 425.235, 356.367 431.659, 364.148 417.016 C 369.090 407.717, 362.075 396, 351.566 396 L 347.428 396 326.600 371 C 315.144 357.250, 305.711 346.018, 305.636 346.041 C 305.561 346.064, 303.587 347.812, 301.250 349.927 M 89.775 350.559 C 81.030 355.305, 84.653 369, 94.654 369 C 105.007 369, 107.574 353.487, 97.785 350.075 C 93.867 348.709, 93.098 348.756, 89.775 350.559 M 413.686 351.415 C 406.860 357.741, 410.801 368.054, 420.094 368.182 C 423.691 368.232, 424.854 367.728, 427.198 365.105 C 435.344 355.987, 422.641 343.116, 413.686 351.415 M 234.295 357.203 C 223.992 359.873, 226.597 376, 237.332 376 C 245.976 376, 250.480 365.753, 244.476 359.748 C 241.496 356.769, 238.684 356.066, 234.295 357.203 M 80.643 378.984 C 68.316 382.867, 67.601 400.347, 79.516 406.557 C 82.025 407.865, 84.195 410.051, 85.473 412.557 C 92.650 426.638, 109.573 437.193, 125.998 437.835 C 134.326 438.160, 136.990 438.633, 138.883 440.123 C 147.315 446.755, 161.167 438.830, 161.167 427.374 C 161.167 410.557, 135.005 407.609, 132.364 424.128 C 130.665 434.753, 106.967 425.981, 95.829 410.605 L 92.963 406.648 95.359 404.074 C 106.465 392.144, 95.923 374.171, 80.643 378.984 M 194.888 387.547 C 184.585 395.747, 184.184 395.960, 181.074 394.876 C 164.255 389.013, 154.194 413.757, 169.984 422.148 C 179.010 426.944, 190.990 420.079, 191.006 410.102 C 191.011 406.694, 191.630 406.021, 202.506 397.592 C 215.653 387.402, 214.959 388.611, 210.786 383.182 C 206.674 377.831, 207.319 377.654, 194.888 387.547 M 80.117 384.631 C 70.050 391.682, 78.965 407.206, 89.849 401.578 C 93.649 399.613, 95 397.230, 95 392.489 C 95 385.055, 86.168 380.392, 80.117 384.631 M 172.500 400.161 C 166.328 403.555, 165.084 411.238, 169.923 416.077 C 177.033 423.187, 189.097 415.884, 185.958 406.372 C 183.940 400.258, 177.624 397.343, 172.500 400.161 M 343.901 404.106 C 339.993 408.290, 339.991 412.840, 343.898 417.211 C 350.317 424.396, 361.951 419.124, 360.674 409.610 C 359.525 401.040, 349.758 397.836, 343.901 404.106 M 378.923 412.923 C 371.266 420.580, 379.364 432.800, 389.334 428.634 C 391.262 427.828, 393.370 426.177, 394.020 424.964 C 399.457 414.803, 386.988 404.858, 378.923 412.923 M 143.295 418.203 C 135.535 420.214, 134.460 431.989, 141.684 435.837 C 148.534 439.485, 155.908 435.122, 155.968 427.386 C 156.022 420.458, 150.377 416.368, 143.295 418.203" stroke="none" fill="#344dec" fill-rule="evenodd"/><path d="M 199.500 5.630 C 198.400 5.890, 194.575 6.786, 191 7.621 C 18.784 47.856, -57.123 259.466, 50.428 399.500 C 191.286 582.901, 480.800 497.077, 499.084 266.500 C 499.607 259.900, 500.296 252.137, 500.614 249.250 C 500.999 245.757, 500.826 244, 500.097 244 C 499.397 244, 498.994 241.195, 498.984 236.250 C 498.961 224.537, 493.741 191.408, 491.579 189.246 C 491.393 189.060, 481.850 182.888, 470.371 175.530 C 422.824 145.054, 426.283 147.513, 424.048 142.606 C 421.413 136.821, 421.463 135.772, 424.639 130.353 C 426.681 126.868, 427.352 124.229, 427.606 118.675 C 427.905 112.152, 427.849 111.900, 426.992 115.909 C 424.106 129.413, 406.166 132.521, 398.995 120.759 C 395.504 115.034, 397.192 105.080, 402.255 101.534 C 404.816 99.740, 402.583 95.689, 395.257 88.839 C 385.825 80.018, 366 73.977, 366 79.923 C 366 90.214, 353.848 96.735, 343.962 91.750 C 330.062 84.741, 335.502 63.615, 351.206 63.615 C 356.301 63.615, 356.353 63.587, 353.460 62.353 C 345.591 58.996, 335.047 62.023, 327.259 69.874 C 321.974 75.201, 321.751 75.312, 318.596 74.171 C 316.815 73.527, 314.337 73, 313.088 73 C 311.805 73, 288.165 58.355, 258.680 39.293 C 209.187 7.296, 204.274 4.502, 199.500 5.630 M 104.415 69.421 C 101.021 70.899, 97.251 75.152, 96.428 78.432 C 96.109 79.701, 93.731 81.674, 90.449 83.392 C 76.139 90.885, 65.500 108.285, 65.500 124.198 C 65.500 129.589, 65.211 134, 64.859 134 C 64.506 134, 63.493 135.809, 62.609 138.020 C 55.987 154.569, 77.874 167.221, 88.153 152.785 C 94.701 143.589, 87.578 129, 76.540 129 C 68.288 129, 81.924 100.155, 93.580 92.950 L 97.134 90.754 99.817 93.255 C 105.139 98.215, 111.341 99.435, 116.800 96.595 C 134.035 87.627, 122.207 61.675, 104.415 69.421 M 348 69.669 C 337.421 73.798, 340.407 88.612, 351.754 88.290 C 359.592 88.068, 363.535 78.079, 357.977 72.524 C 355.440 69.989, 350.675 68.625, 348 69.669 M 105.345 74.931 C 96.740 80.178, 101.971 94.055, 112 92.582 C 121.058 91.251, 123.153 78.716, 115.020 74.510 C 111.174 72.522, 109.152 72.610, 105.345 74.931 M 138.990 80.250 C 126.183 88.966, 131.195 108, 146.298 108 C 149.679 108, 150.630 108.972, 169.552 131.750 C 191.841 158.583, 190.068 157.207, 195.813 152.140 L 200.127 148.336 180.103 124.273 C 160.384 100.574, 160.094 100.159, 161.026 96.910 C 164.546 84.635, 149.386 73.174, 138.990 80.250 M 313.241 82.995 C 308.807 85.698, 306.008 90.601, 306.004 95.674 C 306 99.688, 298.416 106.973, 283.640 117.155 C 282.829 117.714, 289.413 128, 290.582 128 C 290.808 128, 296.039 124.063, 302.207 119.250 L 313.420 110.500 319.960 110.500 C 327.658 110.500, 331.712 108.235, 334.490 102.380 C 340.598 89.508, 325.360 75.605, 313.241 82.995 M 139.452 86.646 C 133.857 92.683, 138.304 103, 146.500 103 C 155.557 103, 159.378 90.880, 152.087 85.282 C 149.074 82.969, 142.169 83.714, 139.452 86.646 M 318.374 86.689 C 311.338 88.070, 309.046 97.246, 314.400 102.600 C 322.508 110.708, 334.398 101.085, 328.920 90.850 C 328.041 89.208, 321.849 85.621, 320.782 86.136 C 320.627 86.211, 319.543 86.460, 318.374 86.689 M 369.880 87.738 C 368.989 87.935, 367.442 89.987, 366.442 92.298 C 365.443 94.609, 364 97.248, 363.237 98.162 C 362.473 99.077, 361.758 100.427, 361.646 101.162 C 361.535 101.898, 361.119 103.020, 360.722 103.655 C 360.270 104.377, 361.781 105.852, 364.750 107.588 C 367.362 109.117, 372.369 112.328, 375.875 114.726 C 383.057 119.636, 382.841 119.655, 384.114 113.988 C 384.629 111.695, 386.164 108.181, 387.525 106.178 C 392.756 98.479, 380.277 85.438, 369.880 87.738 M 406.301 105.772 C 401.243 109.747, 401.192 116.301, 406.186 120.503 C 415.682 128.494, 427.299 115.208, 418.505 106.414 C 415.583 103.492, 409.603 103.177, 406.301 105.772 M 259.017 121.851 C 254.499 124.274, 252.170 127.519, 250.637 133.530 L 249.386 138.433 198.720 174.466 C 163.919 199.217, 148.157 210.987, 148.383 212.056 C 149.069 215.303, 173.075 246.059, 174.311 245.273 C 184.835 238.584, 184.814 240.449, 174.518 226.770 C 169.853 220.571, 166.028 215.255, 166.018 214.954 C 166 214.398, 171.984 210.084, 226.500 171.355 L 257.500 149.331 264 149.753 C 271.582 150.245, 275.909 148.040, 279.209 142 C 285.863 129.822, 271.283 115.273, 259.017 121.851 M 258.923 128.923 C 254.889 132.957, 254.889 138.043, 258.923 142.077 C 262.954 146.108, 268.517 146.157, 272.313 142.195 C 281.010 133.118, 267.811 120.035, 258.923 128.923 M 395.898 133.270 C 391.654 136.105, 389.004 141.247, 389.002 146.647 L 389 150.794 364 171.540 C 350.250 182.950, 339 192.590, 339 192.963 C 339 193.942, 346.021 202, 346.874 202 C 347.269 202, 358.941 192.594, 372.812 181.097 C 397.583 160.566, 398.100 160.204, 401.899 160.713 C 418.068 162.882, 425.681 141.483, 411.759 132.995 C 407.226 130.231, 400.267 130.351, 395.898 133.270 M 69.789 136.898 C 61.602 144.212, 69.935 157.169, 80.113 152.953 C 87.346 149.957, 87.809 139.021, 80.855 135.425 C 76.671 133.261, 73.366 133.701, 69.789 136.898 M 399.763 137.525 C 396.382 139.409, 393.648 144.463, 394.397 147.445 C 396.782 156.950, 409.438 158.599, 413.052 149.875 C 416.398 141.797, 407.288 133.331, 399.763 137.525 M 270.389 167.474 C 250.861 182.039, 251.923 180.624, 256.183 186.413 C 260.330 192.050, 258.723 192.449, 272.024 182.482 C 285.857 172.117, 279.859 167.497, 313.315 214.289 L 341.764 254.077 341.318 260.289 C 340.394 273.177, 351.003 280.566, 362.465 275.017 C 375.866 268.530, 372.314 248.917, 357.434 247.240 L 353.018 246.742 320.885 201.621 C 303.212 176.804, 288.420 156.135, 288.015 155.689 C 287.609 155.242, 279.677 160.546, 270.389 167.474 M 87.898 164.270 C 75.980 172.231, 81.198 190.604, 95.579 191.318 C 98.969 191.487, 99.827 192.257, 107.186 201.750 C 115.901 212.993, 115.282 212.766, 121.922 207.160 L 125.344 204.270 117.693 194.583 L 110.042 184.895 110.644 179.135 C 112.046 165.714, 98.747 157.022, 87.898 164.270 M 90.277 168.772 C 84.441 173.307, 85.671 182.711, 92.472 185.553 C 102.314 189.665, 110.603 177.449, 103.077 169.923 C 99.641 166.487, 93.883 165.970, 90.277 168.772 M 237.019 194.480 L 234.690 196.959 238.487 202.679 L 242.285 208.399 238.930 211.199 C 234.595 214.818, 235.192 215.082, 229.461 207.021 C 224.547 200.107, 222.669 198.468, 220.910 199.556 C 219.160 200.637, 220.038 202.793, 225 209.599 C 230.945 217.753, 230.852 217.113, 226.567 220.381 C 222.221 223.696, 223.094 224.114, 217.542 216.060 C 212.636 208.946, 210.426 207.174, 208.660 208.940 C 207.397 210.203, 208.561 212.607, 214.181 220.336 L 218.424 226.171 215.962 228.114 C 210.639 232.315, 210.537 232.297, 206.517 226.461 C 204.449 223.457, 202.197 221, 201.513 221 C 199.605 221, 195 224.963, 195 226.604 C 195 228.606, 197.714 229.482, 199.451 228.040 C 200.612 227.077, 201.391 227.634, 203.646 231.041 C 206.049 234.672, 206.216 235.374, 204.911 236.362 C 200.042 240.049, 198.587 247.366, 201.574 253.143 C 202.439 254.816, 203.002 256.292, 202.824 256.421 C 202.646 256.551, 200.873 257.866, 198.885 259.344 C 195.710 261.704, 195.118 261.847, 194.013 260.515 C 192.134 258.252, 190 258.675, 190 261.311 C 190 267.642, 194.203 268.927, 200.429 264.500 C 206.445 260.223, 206.171 260.224, 209.402 264.461 L 212.042 267.921 204.521 273.582 C 200.384 276.695, 197 279.877, 197 280.653 C 197 283.848, 200.243 283.009, 206.861 278.103 C 214.926 272.124, 214.970 272.116, 217.812 275.960 C 220.918 280.161, 220.774 280.467, 213 286.138 C 209.150 288.947, 206 291.880, 206 292.654 C 206 295.872, 209.281 295.041, 216.036 290.112 C 224.391 284.016, 224.015 284.065, 227.283 288.658 L 229.885 292.315 224.443 296.213 C 218.418 300.527, 218.051 301.524, 221.073 305.365 C 224.269 309.429, 228.340 308.372, 226.041 304.076 C 225.154 302.419, 225.514 301.709, 228.339 299.555 C 231.843 296.882, 234 296.295, 234 298.015 C 234 301.881, 245.627 304.279, 250.973 301.514 C 254.738 299.567, 261.529 306.319, 258 308.500 C 256.545 309.399, 256.775 312.700, 258.334 313.298 C 259.068 313.580, 261.092 312.696, 262.832 311.335 C 266.390 308.550, 266.234 307.720, 260.855 300.856 C 257.305 296.326, 257.236 296.771, 261.977 293.634 L 265.954 291.002 271.598 298.501 C 277.540 306.396, 277.914 306.686, 279.753 304.847 C 281.192 303.408, 280.292 301.586, 274.241 293.689 C 271.792 290.493, 269.949 287.775, 270.144 287.648 C 270.340 287.522, 272.165 286.194, 274.201 284.696 L 277.902 281.973 283.458 289.487 C 288.726 296.611, 291.081 298.296, 292.517 295.973 C 293.182 294.897, 291.763 292.350, 286.099 284.447 C 282.364 279.235, 282.529 278.026, 287.359 275.183 C 290.176 273.525, 290.250 273.543, 292.359 276.411 C 298.714 285.051, 301.615 285.801, 305.379 279.778 C 306.979 277.216, 304.656 275.109, 302.036 276.746 C 300.368 277.787, 299.739 277.458, 297.157 274.199 L 294.194 270.457 297.597 266.743 C 301.412 262.580, 302.290 256.088, 299.532 252.441 C 297.375 249.590, 297.641 248.754, 301.549 246.092 C 304.227 244.268, 305.365 243.965, 306.242 244.842 C 306.879 245.479, 308.210 246, 309.200 246 C 311.855 246, 311.488 241.807, 308.594 239.089 C 305.876 236.535, 305.069 236.766, 298.545 241.959 L 294.590 245.108 292.766 242.804 C 288.483 237.392, 288.453 237.483, 296.490 231.540 C 304.330 225.742, 304.766 225.166, 302.800 223.200 C 301.070 221.470, 301.045 221.481, 293.138 227.397 C 288.277 231.033, 285.289 232.627, 283.975 232.283 C 279.513 231.116, 280.842 235.024, 288.463 245.481 C 300.098 261.447, 303.069 257.124, 257.352 290.745 C 241.331 302.527, 244.907 304.905, 213.848 261.827 C 200.467 243.268, 198.258 247.172, 238.672 217.965 C 258.453 203.669, 258.502 203.672, 269.704 219.742 C 277.349 230.708, 272.359 231.957, 264.375 221.075 C 257.176 211.261, 210.926 233.676, 211.018 246.934 C 211.048 251.210, 241.516 292, 244.680 292 C 248.367 292, 290.001 261.259, 289.996 258.541 C 289.989 255.303, 277.673 238, 275.375 238 C 272.590 238, 272.730 241.081, 275.685 244.801 C 281.447 252.056, 285.237 258.236, 284.310 258.863 C 282.712 259.943, 268.063 270.534, 256.500 278.969 C 243.240 288.642, 246.783 290.222, 230.040 267.170 C 213.401 244.261, 214.139 248.416, 225.250 240.186 C 242.024 227.760, 253.482 219.386, 254.712 218.652 C 255.497 218.184, 258.112 220.931, 262.147 226.465 C 265.570 231.159, 268.737 235, 269.183 235 C 271.019 235, 280.004 227.688, 280.051 226.156 C 280.079 225.245, 283.454 222.110, 287.551 219.188 C 295.441 213.563, 295.872 212.969, 293.500 211 C 292.254 209.966, 290.807 210.625, 284.978 214.877 C 276.642 220.960, 276.936 220.917, 273.602 216.544 L 270.966 213.088 276.483 209.013 C 282.647 204.459, 283.027 203.306, 279.658 199.388 C 276.553 195.779, 273.545 196.651, 274.476 200.891 C 275.010 203.322, 274.638 204.121, 272.151 205.892 C 268.391 208.570, 268.416 208.573, 264.347 205 C 260.380 201.517, 254.865 200.984, 249.814 203.596 C 245.747 205.699, 239.180 198.861, 243 196.500 C 243.550 196.160, 244 195.009, 244 193.941 C 244 191.118, 239.878 191.436, 237.019 194.480 M 133.604 223.007 C 117.934 227.865, 121.369 252, 137.731 252 C 140.277 252, 143.565 256.254, 174.472 299.527 C 193.142 325.667, 208.915 346.863, 209.524 346.629 C 210.133 346.395, 218.094 340.686, 227.215 333.941 L 243.798 321.678 240.186 316.839 C 235.715 310.851, 237.380 310.474, 224 320.500 C 210.381 330.705, 212.936 330.938, 204.306 318.701 C 200.349 313.090, 186.816 294.066, 174.231 276.425 C 156.268 251.244, 151.513 243.937, 152.105 242.425 C 156.348 231.595, 144.846 219.522, 133.604 223.007 M 132.299 229.503 C 127.241 233.046, 127.578 243.098, 132.850 245.920 C 139.431 249.442, 148 244.679, 148 237.500 C 148 230.026, 138.477 225.176, 132.299 229.503 M 352.388 252.942 C 346.796 255.302, 344.605 261.830, 347.665 267.010 C 352.677 275.494, 365.455 271.969, 365.455 262.102 C 365.455 255.357, 358.395 250.408, 352.388 252.942 M 319 263.639 C 316.525 265.584, 314.560 267.398, 314.634 267.671 C 314.772 268.178, 323.414 280.257, 328.900 287.609 L 331.966 291.718 319.233 300.681 C 298.142 315.528, 256.857 345.040, 251.216 349.303 C 246.087 353.179, 245.815 353.261, 241.955 352.105 C 225.071 347.046, 214.399 371.041, 229.994 378.997 C 239.668 383.932, 251.983 377.645, 251.996 367.763 C 252.001 364.607, 248.439 367.328, 308 324.972 C 329.725 309.522, 348.070 296.322, 348.767 295.638 C 349.901 294.525, 325.881 260.050, 324 260.092 C 323.725 260.098, 321.475 261.694, 319 263.639 M 375.677 294.278 L 370.854 298.500 379.326 309.259 L 387.799 320.019 386.464 324.453 C 383.182 335.360, 391.874 345.380, 402.991 343.501 C 419.064 340.786, 418.991 316.941, 402.901 314.368 C 399.515 313.827, 398.204 312.614, 390.802 303.176 C 386.236 297.354, 382.050 292.020, 381.500 291.323 C 380.733 290.352, 379.376 291.040, 375.677 294.278 M 126.127 324.263 L 101.753 344.500 95.452 344.500 C 79.446 344.500, 73.472 361.797, 86.198 371.298 C 95.234 378.045, 108.912 370.748, 109.057 359.102 L 109.114 354.500 133.942 334.012 L 158.770 313.524 155.135 308.804 C 153.136 306.209, 151.275 304.072, 151 304.056 C 150.725 304.039, 139.532 313.133, 126.127 324.263 M 395.775 320.559 C 387.453 325.075, 390.124 337.402, 399.703 338.687 C 403.427 339.186, 404.250 338.904, 406.952 336.202 C 415.196 327.958, 405.961 315.031, 395.775 320.559 M 417.275 344.054 C 402.759 347.129, 401.413 369.387, 415.554 372.515 C 421.469 373.824, 421.301 373.555, 420.777 380.869 C 420.028 391.339, 413.272 402.277, 403.328 409.118 L 398.835 412.210 397.357 410.099 C 389.721 399.197, 371.500 405.703, 371.500 419.331 C 371.500 435.487, 392.469 440.356, 399.029 425.723 C 400.465 422.520, 401.959 421.022, 405.211 419.519 C 419.013 413.146, 430.355 394.981, 430.726 378.660 C 430.905 370.756, 431.316 368.308, 432.726 366.751 C 440.679 357.963, 429.454 341.474, 417.275 344.054 M 301.250 349.927 C 298.913 352.042, 297 354.072, 297 354.439 C 297 355.062, 326.377 390.939, 333.682 399.237 C 336.791 402.769, 336.942 403.292, 336.423 408.737 C 334.851 425.235, 356.367 431.659, 364.148 417.016 C 369.090 407.717, 362.075 396, 351.566 396 L 347.428 396 326.600 371 C 315.144 357.250, 305.711 346.018, 305.636 346.041 C 305.561 346.064, 303.587 347.812, 301.250 349.927 M 89.775 350.559 C 81.030 355.305, 84.653 369, 94.654 369 C 105.007 369, 107.574 353.487, 97.785 350.075 C 93.867 348.709, 93.098 348.756, 89.775 350.559 M 413.686 351.415 C 406.860 357.741, 410.801 368.054, 420.094 368.182 C 423.691 368.232, 424.854 367.728, 427.198 365.105 C 435.344 355.987, 422.641 343.116, 413.686 351.415 M 234.295 357.203 C 223.992 359.873, 226.597 376, 237.332 376 C 245.976 376, 250.480 365.753, 244.476 359.748 C 241.496 356.769, 238.684 356.066, 234.295 357.203 M 80.643 378.984 C 68.316 382.867, 67.601 400.347, 79.516 406.557 C 82.025 407.865, 84.195 410.051, 85.473 412.557 C 92.650 426.638, 109.573 437.193, 125.998 437.835 C 134.326 438.160, 136.990 438.633, 138.883 440.123 C 147.315 446.755, 161.167 438.830, 161.167 427.374 C 161.167 410.557, 135.005 407.609, 132.364 424.128 C 130.665 434.753, 106.967 425.981, 95.829 410.605 L 92.963 406.648 95.359 404.074 C 106.465 392.144, 95.923 374.171, 80.643 378.984 M 194.888 387.547 C 184.585 395.747, 184.184 395.960, 181.074 394.876 C 164.255 389.013, 154.194 413.757, 169.984 422.148 C 179.010 426.944, 190.990 420.079, 191.006 410.102 C 191.011 406.694, 191.630 406.021, 202.506 397.592 C 215.653 387.402, 214.959 388.611, 210.786 383.182 C 206.674 377.831, 207.319 377.654, 194.888 387.547 M 80.117 384.631 C 70.050 391.682, 78.965 407.206, 89.849 401.578 C 93.649 399.613, 95 397.230, 95 392.489 C 95 385.055, 86.168 380.392, 80.117 384.631 M 172.500 400.161 C 166.328 403.555, 165.084 411.238, 169.923 416.077 C 177.033 423.187, 189.097 415.884, 185.958 406.372 C 183.940 400.258, 177.624 397.343, 172.500 400.161 M 343.901 404.106 C 339.993 408.290, 339.991 412.840, 343.898 417.211 C 350.317 424.396, 361.951 419.124, 360.674 409.610 C 359.525 401.040, 349.758 397.836, 343.901 404.106 M 378.923 412.923 C 371.266 420.580, 379.364 432.800, 389.334 428.634 C 391.262 427.828, 393.370 426.177, 394.020 424.964 C 399.457 414.803, 386.988 404.858, 378.923 412.923 M 143.295 418.203 C 135.535 420.214, 134.460 431.989, 141.684 435.837 C 148.534 439.485, 155.908 435.122, 155.968 427.386 C 156.022 420.458, 150.377 416.368, 143.295 418.203" stroke="none" fill="#221141" fill-rule="evenodd"/></svg>